<svg width="1033" height="700" viewBox="0 0 1033 1019" fill="none" xmlns="http://www.w3.org/2000/svg">
<path d="M451.672 36.9237C466.531 30.6204 481.858 25.7063 497.638 22.6936C513.492 21.2603 529.901 22.4304 546.895 26.2182C564.08 31.8196 581.951 39.644 600.511 49.1795C619.333 59.4023 638.887 70.3565 659.069 81.4861C679.412 91.8698 700.253 101.654 721.328 110.634C742.154 118.122 762.775 124.688 782.723 130.509C801.619 135.072 819.11 139.343 834.613 143.613C853.406 149.668 871.541 166.253 869.815 177.821C865.267 186.713 857.925 196.965 848.434 208.431C838.825 220.672 828.953 233.981 819.973 248.167C813.992 262.924 811.067 278.324 812.178 294.177C818.555 310.353 829.86 326.806 846.02 343.361C866.744 360.078 890.729 376.794 916.484 393.379C942.619 410.051 966.955 426.548 987.488 442.797C1003.06 459.074 1011.75 475.059 1012.56 490.679C1006.11 506.298 992.329 521.143 972.644 535.168C949.229 549.164 923.489 562.312 897.471 574.568C873.311 586.78 852.207 598.114 835.315 608.6C823.732 619.086 817.297 628.841 815.688 637.938C819.081 647.313 825.853 656.307 834.803 665.184C845.845 674.764 856.755 684.665 866.378 695.166C874.978 706.939 880.623 719.765 882.861 733.849C882.364 749.483 878.049 766.492 870.108 784.744C859.417 804.063 845.669 824.041 829.48 844.078C811.447 863.675 791.864 882.044 771.301 898.322C750.007 912.157 728.465 922.599 707.068 929.063C685.701 932.032 664.861 930.891 644.722 925.963C624.905 918.899 605.863 909.758 587.597 899.74C569.681 891.126 552.438 884.282 535.839 880.377C519.459 881.05 503.576 885.92 488.147 894.929C472.805 908.033 457.814 923.535 443.175 939.842C428.535 955.798 414.539 968.697 401.186 977.18C387.805 981.187 375.066 979.403 362.986 972.076C350.891 960.419 339.44 944.815 328.676 926.636C317.853 907.609 307.66 888.684 298.095 871.061C288.34 856.012 279.112 843.756 270.307 834.542C261.123 828.838 252.187 825.796 243.397 824.802C233.979 825.972 224.487 827.756 214.82 829.35C204.349 831.061 193.57 831.31 182.47 829.686C170.565 826.761 158.411 821.467 146.083 813.848C133.286 804.59 120.606 793.197 108.262 780.02C96.0212 765.614 84.5406 749.907 74.0691 733.293C64.2996 716.036 55.8756 698.31 48.9433 680.394C43.0348 662.303 38.6766 644.271 35.8978 626.487C33.9088 608.732 33.2068 591.284 33.631 574.232C34.1867 557.252 35.4006 540.638 37.0532 524.433C38.0916 508.273 39.13 492.463 40.066 477.048C39.949 461.648 39.6565 446.95 39.247 432.983C38.0477 418.987 37.0971 405.693 36.5706 393.101C35.9563 380.45 36.2635 368.443 37.6967 357.094C39.7442 345.599 43.2542 334.63 48.2998 324.144C54.3253 313.365 61.9303 302.879 70.9832 292.554C80.8843 281.688 91.9847 270.763 104.021 259.633C116.408 247.728 129.322 235.443 142.558 222.69C155.516 209.104 168.459 195.078 181.256 180.717C193.336 165.858 205.153 150.984 216.648 136.388C227.339 122.056 237.796 108.615 248.092 96.4475C257.686 85.4202 267.309 76.2065 277.064 69.0549C286.351 63.4535 295.96 59.9288 305.978 58.3932C315.718 57.8082 326.014 58.5248 336.895 60.1043C347.644 61.2158 359.066 62.1518 371.147 62.459C383.168 61.0403 395.892 58.4517 409.303 54.6785C422.7 49.2087 436.798 43.1101 451.657 36.9384" stroke="url(#paint0_linear_30_829)" stroke-opacity="0.52" stroke-width="2.5" stroke-linecap="round" stroke-dasharray="2 3"/>
<path opacity="0.96" d="M493.292 53.1056C508.323 47.8155 523.809 43.8742 539.688 41.7613C555.544 41.1126 571.838 42.9693 588.537 47.3588C605.267 53.5237 622.482 61.9186 640.165 72.1177C657.94 83.1435 676.199 95.0656 694.812 107.407C713.446 119.192 732.251 130.608 750.982 141.359C769.32 150.736 787.1 159.212 803.91 166.848C819.593 173.12 833.613 178.814 845.471 184.177C858.969 191.127 867.693 206.545 862.582 216.118C856.605 223.246 848.476 231.464 838.871 240.729C829.748 250.7 820.89 261.772 813.357 273.87C808.97 286.729 807.67 300.553 810.261 315.174C817.671 330.505 829.479 346.505 845.488 363.014C865.338 379.979 887.779 397.202 911.433 414.474C935.066 431.848 956.751 448.977 974.7 465.643C987.991 482.047 994.892 497.77 994.563 512.669C987.593 527.133 973.916 540.411 954.755 552.584C932.022 564.493 906.945 575.473 881.349 585.656C857.067 595.925 835.283 605.625 817.09 614.9C803.499 624.608 794.539 634.091 790.084 643.502C790.318 653.601 793.987 663.836 800.099 674.363C808.596 685.853 817.528 697.868 825.84 710.606C833.756 724.49 839.414 739.267 842.255 754.988C842.914 771.813 840.179 789.441 834.092 807.671C825.487 826.294 813.884 844.837 799.757 862.747C783.806 879.628 766.095 894.739 747.227 907.385C727.532 917.426 707.4 924.068 687.265 926.929C667.085 926.68 647.3 922.865 628.147 915.868C609.212 907.345 590.943 897.372 573.357 887.033C555.894 878.402 538.95 871.695 522.46 867.92C505.865 868.433 489.573 872.82 473.594 880.95C457.448 892.748 441.634 906.648 426.243 921.251C410.874 935.518 396.431 947.046 382.982 954.594C369.751 958.126 357.567 956.391 346.409 949.521C335.43 938.558 325.377 923.743 316.129 906.254C306.828 887.561 298.106 868.538 289.875 850.295C281.237 834.004 272.844 820.031 264.587 808.689C255.654 800.498 246.7 794.886 237.621 791.405C227.732 790.216 217.646 790.04 207.305 790.17C196.15 790.863 184.774 790.676 173.192 789.157C160.977 786.79 148.714 782.47 136.539 776.134C124.13 768.435 112.102 758.723 100.657 747.261C89.5391 734.618 79.3617 720.586 70.3232 705.5C62.136 689.723 55.3684 673.305 50.148 656.534C45.9411 639.507 43.2925 622.406 42.1443 605.447C41.7606 588.45 42.5923 571.693 44.4713 555.284C46.4369 538.895 48.9506 522.864 51.8355 507.209C54.0471 491.54 56.1921 476.218 58.1498 461.294C59.0285 446.285 59.627 431.975 60.0045 418.355C59.5521 404.651 59.2319 391.616 59.2491 379.247C59.1125 366.765 59.7842 354.923 61.4723 343.675C63.7419 332.274 67.3868 321.359 72.4847 310.862C78.5686 300.077 86.2046 289.54 95.298 279.127C105.319 268.204 116.62 257.203 128.945 246.006C141.799 234.125 155.333 221.921 169.33 209.368C183.267 196.15 197.325 182.662 211.349 169.011C224.848 155.105 238.113 141.419 251.081 128.241C263.286 115.511 275.173 103.845 286.763 93.5814C297.588 84.4841 308.235 77.2073 318.796 71.918C328.724 68.0237 338.731 66.0545 348.915 65.8556C358.731 66.3655 368.9 67.9684 379.538 70.2468C390.026 71.9144 401.13 73.3293 412.908 74.0993C424.708 73.1707 437.268 71.1632 450.63 68.0943C464.037 63.4309 478.255 58.2634 493.277 53.1047" stroke="url(#paint1_linear_30_829)" stroke-opacity="0.52" stroke-width="2.5" stroke-linecap="round" stroke-dasharray="2 7"/>
<path opacity="0.93" d="M533.855 72.8775C549.003 68.6126 564.526 65.6507 580.321 64.4356C595.999 64.5621 611.924 67.0811 628.045 72.0304C644.033 78.6731 660.246 87.5285 676.645 98.2228C692.956 109.82 709.438 122.472 725.967 135.661C742.333 148.519 758.593 161.172 774.454 173.271C789.815 184.123 804.376 194.104 817.731 203.16C829.99 210.788 840.48 217.623 848.797 223.819C857.43 231.428 858.502 245.611 851.181 253.397C844.551 258.958 836.377 265.377 827.355 272.748C819.282 280.759 811.912 289.925 806.119 300.227C803.508 311.464 803.909 323.907 807.91 337.472C816.226 351.987 828.378 367.507 844.055 383.815C862.89 400.788 883.701 418.213 905.213 435.803C926.377 453.466 945.456 470.825 960.94 487.595C972.04 503.818 977.293 519.081 975.925 533.209C968.553 546.549 955.044 558.434 936.5 569.009C914.58 579.126 890.291 588.297 865.27 596.753C841.142 605.37 818.924 613.707 799.695 621.979C784.397 630.974 773.155 640.206 765.987 649.856C763.127 660.514 763.598 671.756 766.62 683.674C772.181 696.706 778.618 710.473 784.968 725.025C791.463 740.599 796.345 756.89 799.048 773.825C800.176 791.408 798.405 809.274 793.726 827.157C786.934 844.836 777.363 861.782 765.418 877.486C751.81 891.703 736.453 903.729 719.85 913.01C702.457 919.65 684.499 922.956 666.4 922.732C648.167 919.822 630.178 913.816 612.644 905.244C595.184 895.665 578.17 885.155 561.635 874.709C544.955 866.146 528.543 859.595 512.359 855.906C495.773 856.177 479.267 859.998 462.896 867.17C446.173 877.586 429.721 889.866 413.696 902.719C397.723 915.283 382.881 925.415 369.255 932.018C356.04 935.033 344.173 933.297 333.599 926.879C323.426 916.619 314.345 902.652 306.226 885.965C298.092 867.816 290.55 848.977 283.382 830.438C275.696 813.262 268.069 797.879 260.343 784.71C251.775 774.247 242.91 766.165 233.726 760.165C223.578 756.458 213.088 754.003 202.257 752.242C190.614 751.376 178.769 750.145 166.809 748.103C154.356 745.656 142.023 741.735 129.978 736.186C117.905 729.614 106.443 721.309 95.7708 711.367C85.6256 700.447 76.6066 688.141 68.8786 674.765C62.0925 660.731 56.8203 645.952 53.1274 630.716C50.4612 615.188 49.3381 599.478 49.6898 583.771C50.7439 567.993 52.96 552.354 56.1343 536.943C59.3395 521.522 63.0584 506.346 67.0311 491.482C70.3349 476.546 73.5029 461.858 76.4077 447.488C78.2269 432.962 79.6722 419.036 80.8163 405.719C81.1251 392.248 81.461 379.355 82.0292 367.054C82.4095 354.611 83.4975 342.732 85.493 331.356C88.0081 319.841 91.8211 308.777 97.0034 298.071C103.163 287.108 110.827 276.373 119.951 265.756C130.071 254.739 141.496 243.672 154.059 232.474C167.263 220.77 181.276 208.863 195.889 196.769C210.619 184.233 225.593 171.641 240.617 159.114C255.276 146.554 269.744 134.441 283.927 123.043C297.412 112.231 310.506 102.608 323.201 94.451C335.097 87.4285 346.642 82.1888 357.897 78.814C368.465 76.6321 378.897 76.1582 389.332 77.2336C399.323 78.7669 409.552 81.187 420.115 84.0935C430.54 86.2591 441.538 88.1016 453.209 89.3098C464.965 88.8623 477.498 87.4401 490.875 85.0961C504.375 81.2491 518.707 77.0245 533.838 72.8901" stroke="url(#paint2_linear_30_829)" stroke-opacity="0.52" stroke-width="2.5" stroke-linecap="round" stroke-dasharray="8 4"/>
<path opacity="0.89" d="M571.745 96.0152C586.91 92.7767 602.292 90.7741 617.808 90.4234C633.114 91.2834 648.435 94.3977 663.705 99.7981C678.688 106.797 693.588 115.941 708.367 126.895C722.856 138.79 737.208 151.821 751.286 165.484C765.054 178.98 778.392 192.392 791.089 205.348C803.225 217.224 814.371 228.232 824.19 238.262C836.556 250.705 849.503 269.392 849.173 276.542C844.69 282.601 825.786 295.893 814.066 304.317C807.476 310.853 801.877 318.554 798.016 327.494C797.257 337.482 799.325 348.852 804.628 361.578C813.724 375.401 826.052 390.445 841.263 406.51C858.986 423.296 878.097 440.671 897.473 458.292C916.224 475.909 932.82 493.187 945.95 509.748C955.038 525.567 958.763 540.232 956.475 553.57C948.766 565.817 935.5 576.47 917.628 585.687C896.566 594.301 873.185 601.978 848.856 609.019C825.026 616.249 802.608 623.431 782.591 630.836C765.827 639.125 752.532 648.042 742.81 657.743C736.972 668.677 734.246 680.541 734.045 693.354C736.429 707.41 740 722.328 743.902 738.057C748.413 754.697 751.939 771.872 753.89 789.391C754.861 807.192 753.563 824.857 749.852 841.983C744.557 858.451 736.868 873.685 727.079 887.174C715.942 898.891 703.184 908.109 689.24 914.437C674.595 918.211 659.32 918.774 643.793 916.096C628.074 911.158 612.399 903.59 596.968 893.968C581.406 883.798 566.025 873.097 550.837 862.778C535.255 854.438 519.631 848.117 503.962 844.502C487.634 844.512 471.149 847.713 454.598 853.882C437.54 862.902 420.657 873.523 404.179 884.657C387.769 895.521 372.564 904.224 358.73 909.844C345.457 912.265 333.724 910.458 323.472 904.414C313.791 894.814 305.373 881.708 298.004 865.872C290.717 848.413 284.038 829.927 277.702 811.359C270.846 793.612 263.917 777.134 256.741 762.425C248.602 749.941 240.022 739.531 230.948 731.081C220.831 724.809 210.234 719.903 199.24 715.948C187.424 713.126 175.385 710.38 163.299 707.266C150.818 704.193 138.567 700.108 126.751 694.811C115.086 688.903 104.192 681.583 94.2579 672.888C85.005 663.463 77.0094 652.811 70.4405 641.13C64.8834 628.934 60.8968 615.962 58.5185 602.473C57.1867 588.745 57.3631 574.705 58.9735 560.577C61.2606 546.344 64.6319 532.133 68.9069 518.026C73.1789 503.859 77.8899 489.81 82.8221 475.923C87.0628 461.914 91.1315 448.02 94.9166 434.278C97.6086 420.334 99.8825 406.845 101.813 393.809C102.877 380.556 103.91 367.759 105.087 355.439C106.043 342.955 107.611 330.92 109.985 319.329C112.821 307.591 116.859 296.255 122.192 285.236C128.453 274.043 136.189 263.084 145.342 252.271C155.513 241.213 167.021 230.181 179.707 219.145C193.124 207.806 207.442 196.438 222.428 185.083C237.687 173.558 253.289 162.176 269.007 151.115C284.493 140.247 299.823 130.018 314.861 120.656C329.292 112.024 343.283 104.631 356.772 98.7192C369.496 93.8782 381.741 90.7016 393.542 89.2408C404.647 88.7305 415.499 89.7206 426.183 92.0046C436.438 94.5014 446.809 97.6922 457.432 101.187C467.954 103.841 478.997 106.121 490.67 107.781C502.513 107.835 515.126 107.013 528.553 105.397C542.178 102.405 556.588 99.1361 571.731 96.0124" stroke="url(#paint3_linear_30_829)" stroke-opacity="0.52" stroke-width="2.5" stroke-linecap="round" stroke-dasharray="8 5"/>
<path opacity="0.86" d="M605.397 121.865C620.449 119.636 635.54 118.567 650.564 118.995C665.308 120.528 679.816 124.133 694.002 129.847C707.746 137.047 721.12 146.253 734.03 157.197C746.503 169.099 758.506 182.131 769.931 195.857C780.926 209.544 791.245 223.216 800.69 236.534C809.55 248.924 817.316 260.476 823.74 271.049C831.312 284.35 836.205 304.051 833.124 311.16C827.215 316.787 809.011 328.089 799.247 335.168C794.37 340.783 790.681 347.563 788.794 355.642C789.824 364.819 793.433 375.502 799.859 387.65C809.545 400.971 821.874 415.62 836.468 431.419C852.995 447.916 870.388 465.084 887.666 482.509C904.109 499.832 918.356 516.764 929.29 532.947C936.529 548.173 938.85 562.146 935.746 574.668C927.781 585.891 914.809 595.458 897.596 603.559C877.441 610.889 854.984 617.316 831.443 623.211C808.059 629.253 785.613 635.411 765.006 641.999C747.032 649.548 731.943 657.974 719.906 667.443C711.277 678.262 705.485 690.247 702.101 703.361C701.269 717.747 701.783 733.099 702.995 749.242C705.176 766.174 706.907 783.486 707.693 800.878C708.05 818.291 706.773 835.193 703.684 851.17C699.545 866.202 693.514 879.592 685.774 890.936C677.058 900.384 666.962 907.178 655.831 911.045C644.139 912.538 631.814 911.015 619.133 906.581C606.222 900.285 593.166 891.815 580.083 881.688C566.694 871.403 553.203 860.88 539.567 850.953C525.31 843.01 510.717 837.005 495.742 833.503C479.924 833.272 463.692 835.837 447.201 841.012C430.066 848.65 412.992 857.65 396.248 867.057C379.568 876.224 364.114 883.523 350.088 888.085C336.741 889.877 325.024 887.896 314.879 882.127C305.468 873.102 297.423 860.779 290.509 845.807C283.823 829.078 277.757 811.108 272.052 792.689C265.888 774.631 259.597 757.388 252.994 741.423C245.437 727.217 237.337 714.759 228.638 704.032C218.872 695.261 208.565 687.889 197.772 681.598C186.182 676.593 174.361 671.996 162.505 667.42C150.315 663.238 138.44 658.506 127.089 653.004C115.978 647.28 105.75 640.519 96.6131 632.734C88.218 624.495 81.1801 615.257 75.6604 605.153C71.1611 594.686 68.2694 583.528 67.0144 571.854C66.7487 559.99 67.982 547.786 70.6266 535.398C73.8724 522.913 78.1592 510.328 83.3193 497.705C88.4277 484.991 93.9411 472.235 99.66 459.503C104.68 446.554 109.537 433.592 114.1 420.596C117.589 407.314 120.655 394.312 123.33 381.584C125.165 368.602 126.935 355.919 128.78 343.575C130.374 331.043 132.483 318.845 135.328 307.01C138.565 295.068 142.893 283.463 148.439 272.169C154.842 260.786 162.642 249.67 171.822 238.771C181.993 227.789 193.485 216.963 206.149 206.284C219.601 195.544 233.991 184.978 249.107 174.636C264.563 164.386 280.421 154.5 296.451 145.159C312.343 136.221 328.126 128.087 343.609 120.962C358.555 114.601 373.051 109.529 386.991 105.912C400.22 103.256 412.907 102.12 425.051 102.505C436.559 103.628 447.702 106 458.595 109.426C469.121 112.86 479.672 116.77 490.405 120.849C501.128 124.003 512.308 126.748 524.052 128.858C536.061 129.463 548.778 129.29 562.227 128.418C575.958 126.32 590.37 123.995 605.379 121.875" stroke="url(#paint4_linear_30_829)" stroke-opacity="0.52" stroke-width="2.5" stroke-linecap="round" stroke-dasharray="2 2"/>
<path opacity="0.82" d="M633.525 149.528C648.312 148.265 662.951 148.033 677.297 149.169C691.314 151.274 704.828 155.232 717.745 161.087C730.139 168.31 741.834 177.364 752.773 188.016C763.161 199.608 772.768 212.279 781.534 225.654C789.782 239.1 797.119 252.593 803.43 265.785C809.213 278.212 813.843 289.893 817.15 300.601C820.471 314.325 818.729 334.703 813.71 341.959C807.093 347.593 790.703 358.334 783.179 364.959C780.07 370.221 778.264 376.65 778.204 384.397C780.845 393.243 785.764 403.616 793.071 415.509C803.115 428.529 815.252 442.937 829.059 458.481C844.314 474.67 859.983 491.509 875.197 508.595C889.456 525.45 901.491 541.893 910.385 557.534C915.909 572.05 916.975 585.273 913.128 597.002C904.986 607.277 892.32 615.866 875.789 623.008C856.539 629.245 835.045 634.629 812.323 639.536C789.513 644.521 767.22 649.712 746.237 655.454C727.341 662.151 710.743 669.856 696.698 678.735C685.587 688.978 676.986 700.518 670.604 713.258C666.667 727.257 664.187 742.244 662.666 757.957C662.39 774.369 662.15 791.041 661.49 807.586C660.946 823.969 659.374 839.603 656.61 854.061C653.324 867.416 648.687 878.924 642.792 888.216C632.544 898.01 606.91 900.664 592.434 893.664C582.38 886.693 571.988 877.894 561.342 867.836C550.229 857.882 538.709 847.898 526.737 838.611C513.942 831.253 500.491 825.695 486.392 822.373C471.284 821.937 455.541 823.926 439.311 828.128C422.382 834.44 405.346 841.889 388.54 849.617C371.805 857.138 356.261 863.008 342.092 866.502C328.693 867.586 316.943 865.353 306.803 859.728C297.515 851.179 289.666 839.566 282.971 825.41C276.668 809.457 271.047 792.083 265.827 773.98C260.26 755.852 254.595 738.107 248.625 721.217C241.779 705.636 234.363 691.421 226.324 678.679C217.279 667.634 207.621 657.941 197.468 649.347C186.551 642.099 175.385 635.494 164.194 629.235C152.718 623.636 141.567 617.899 130.981 611.814C120.682 605.841 111.315 599.258 103.094 591.981C95.6224 584.588 89.5418 576.461 85.009 567.685C81.4574 558.747 79.5132 549.257 79.1899 539.312C79.7781 529.274 81.8432 518.887 85.283 508.271C89.2274 497.578 94.1994 486.677 100.004 475.642C105.718 464.467 111.834 453.105 118.15 441.609C123.783 429.851 129.287 417.88 134.515 405.723C138.722 393.204 142.513 380.777 145.928 368.454C148.527 355.807 151.022 343.327 153.582 331.023C155.852 318.528 158.568 306.262 161.945 294.281C165.614 282.213 170.303 270.46 176.092 259.018C182.648 247.588 190.502 236.474 199.673 225.667C209.741 214.948 221.093 204.54 233.59 194.442C246.846 184.524 261.029 174.966 275.95 165.874C291.248 157.08 306.974 148.893 322.9 141.439C338.741 134.557 354.498 128.605 369.977 123.747C385.008 119.711 399.566 116.935 413.582 115.535C426.955 114.982 439.762 115.782 452.013 117.907C463.701 120.552 475.001 124.208 485.992 128.685C496.715 132.995 507.419 137.592 518.252 142.216C529.177 145.884 540.502 149.101 552.325 151.714C564.487 152.913 577.278 153.399 590.699 153.295C604.455 152.069 618.757 150.689 633.511 149.523" stroke="url(#paint5_linear_30_829)" stroke-opacity="0.52" stroke-width="2.5" stroke-linecap="round" stroke-dasharray="2 6"/>
<path opacity="0.79" d="M655.219 177.832C669.593 177.471 683.626 178.015 697.146 179.723C710.3 182.277 722.72 186.457 734.281 192.293C745.248 199.339 755.265 208.034 764.255 218.141C772.608 229.139 779.926 241.15 786.188 253.801C791.881 266.643 796.516 279.555 800.019 292.221C803.042 304.325 804.926 315.737 805.587 326.279C805.346 340.041 798.473 360.969 792.195 368.582C785.429 374.696 771.483 386.278 766.201 393.242C764.741 398.731 764.615 405.356 766.128 413.261C770.085 422.221 775.984 432.649 783.86 444.574C793.975 457.55 805.692 471.821 818.564 487.202C832.443 503.094 846.371 519.56 859.565 536.229C871.729 552.52 881.704 568.366 888.692 583.357C892.674 597.123 892.599 609.561 888.096 620.502C879.821 629.885 867.466 637.615 851.605 643.912C833.264 649.2 812.747 653.669 790.917 657.674C768.791 661.668 746.821 665.9 725.71 670.693C706.197 676.368 688.471 683.081 672.784 690.985C659.612 700.196 648.584 710.689 639.571 722.395C632.848 735.299 627.636 749.143 623.54 763.655C620.899 778.783 618.674 794.052 616.523 809.066C614.92 823.863 612.86 837.776 610.193 850.362C605.727 866.651 592.468 886.032 583.925 888.058C577.799 886.761 571.146 882.985 564.071 876.976C556.689 869.908 548.819 861.341 540.491 851.777C531.564 842.551 521.957 833.439 511.638 825.015C500.33 818.414 488.107 813.412 474.98 810.332C460.744 809.783 445.643 811.252 429.899 814.543C413.4 819.627 396.649 825.588 379.996 831.732C363.427 837.673 347.934 842.16 333.74 844.573C320.374 844.906 308.602 842.338 298.423 836.756C289.204 828.581 281.421 817.581 274.855 804.172C268.803 788.981 263.502 772.281 258.676 754.622C253.676 736.654 248.639 718.702 243.359 701.22C237.364 684.629 230.852 669.058 223.73 654.66C215.714 641.696 207.095 629.924 198.005 619.254C188.202 609.888 178.149 601.32 168.07 593.312C157.726 586.175 147.717 579.224 138.267 572.298C129.084 565.799 120.814 559.044 113.688 551.97C104.741 541.375 95.4674 518.24 95.3954 505.773C96.6928 497.384 99.3977 488.69 103.409 479.746C107.856 470.743 113.288 461.499 119.53 452.02C125.635 442.374 132.159 432.441 138.917 422.21C144.997 411.667 150.986 400.77 156.778 389.506C161.596 377.841 166.041 366.085 170.166 354.26C173.473 342.08 176.694 329.914 179.973 317.802C182.895 305.48 186.247 293.304 190.173 281.349C194.298 269.333 199.337 257.632 205.374 246.233C212.057 234.958 219.928 224.063 228.976 213.575C238.841 203.33 249.894 193.544 262.005 184.258C274.811 175.322 288.517 166.964 302.9 159.265C317.661 152.071 332.839 145.666 348.219 140.151C363.575 135.307 378.849 131.505 393.865 128.863C408.52 127.02 422.737 126.389 436.41 127.037C449.572 128.423 462.189 130.977 474.236 134.64C485.889 138.646 497.134 143.449 508.073 148.839C518.879 153.935 529.657 159.179 540.507 164.325C551.568 168.499 562.983 172.201 574.814 175.316C587.062 177.116 599.849 178.299 613.147 178.935C626.807 178.58 640.878 178.111 655.2 177.84" stroke="url(#paint6_linear_30_829)" stroke-opacity="0.52" stroke-width="2.5" stroke-linecap="round" stroke-dasharray="2 4"/>
<path opacity="0.75" d="M670.081 205.605C683.898 206.044 697.183 207.231 709.788 209.404C721.993 212.292 733.264 216.548 743.479 222.222C753.047 228.948 761.447 237.088 768.631 246.439C775.135 256.645 780.402 267.743 784.456 279.417C787.943 291.35 790.253 303.389 791.398 315.246C792.128 326.72 791.762 337.606 790.305 347.761C787.315 361.333 776.769 382.745 769.845 390.992C763.305 397.995 751.975 411.622 748.745 419.65C748.662 425.851 749.887 433.103 752.619 441.568C757.489 451.019 763.99 461.86 772.044 474.051C781.942 487.164 792.953 501.461 804.696 516.721C817.103 532.356 829.251 548.45 840.471 564.643C850.628 580.345 858.649 595.518 863.859 609.814C866.424 622.794 865.317 634.456 860.237 644.621C851.883 653.16 839.868 660.094 824.677 665.598C807.263 670.056 787.757 673.665 766.88 676.812C745.558 679.838 724.113 683.048 703.149 686.771C683.367 691.238 664.913 696.685 648.088 703.226C633.324 710.976 620.401 719.925 609.257 729.993C600.207 741.172 592.64 753.211 586.34 765.824C581.581 779.015 577.555 792.273 574.004 805.195C571.335 817.915 568.712 829.712 565.988 840.188C549.687 862.535 526.852 845.602 517.736 832.954C510.742 824.772 502.879 816.734 494.066 809.336C484.178 803.626 473.154 799.264 461.035 796.499C447.747 795.914 433.45 796.95 418.338 799.412C402.464 803.389 386.215 807.997 369.933 812.637C353.729 817.121 338.464 820.289 324.411 821.625C311.196 821.222 299.482 818.265 289.307 812.642C280.15 804.75 272.421 794.283 265.914 781.566C260.076 767.156 255.064 751.165 250.582 734.097C246.135 716.493 241.759 698.614 237.246 680.88C232.22 663.691 226.767 647.206 220.803 631.594C214.095 617.131 206.863 603.699 199.194 591.29C190.898 580.088 182.385 569.758 173.812 560.148C165.023 551.507 156.518 543.316 148.552 535.454C140.812 528.226 133.924 521.09 128.107 513.96C120.943 503.804 114.619 483.125 115.687 472.503C117.589 465.485 120.805 458.249 125.242 450.783C130.039 443.315 135.77 435.572 142.264 427.536C148.6 419.325 155.365 410.738 162.389 401.757C168.769 392.427 175.127 382.613 181.364 372.316C186.669 361.561 191.685 350.565 196.418 339.382C200.377 327.785 204.269 316.091 208.214 304.357C211.791 292.41 215.722 280.539 220.164 268.821C224.704 257.103 230.057 245.654 236.288 234.572C243.018 223.67 250.804 213.238 259.634 203.303C269.139 193.717 279.708 184.752 291.211 176.441C303.324 168.643 316.235 161.578 329.772 155.36C343.64 149.761 357.894 145.101 372.331 141.46C386.76 138.565 401.144 136.756 415.268 136.106C429.122 136.237 442.604 137.521 455.57 139.953C468.168 143.003 480.276 147.05 491.872 152.002C503.215 157.173 514.196 162.915 524.911 169.064C535.63 174.84 546.317 180.616 557.08 186.203C568.172 190.858 579.534 195.028 591.266 198.613C603.5 201.043 616.142 202.876 629.173 204.215C642.604 204.708 656.296 205.069 670.068 205.599" stroke="url(#paint7_linear_30_829)" stroke-opacity="0.52" stroke-width="2.5" stroke-linecap="round" stroke-dasharray="1 3"/>
<path opacity="0.72" d="M678.222 231.693C691.363 232.845 703.822 234.566 715.442 237.069C726.671 240.192 736.815 244.411 745.75 249.791C754.022 256.088 760.988 263.54 766.59 272.013C771.497 281.284 775.067 291.321 777.325 301.851C779.02 312.715 779.495 323.704 778.811 334.566C777.798 345.239 775.755 355.47 772.766 365.09C767.808 378.335 754.954 400.314 747.843 409.384C741.764 417.629 732.868 434.227 731.263 443.816C732.227 451.053 734.385 459.265 737.886 468.604C743.229 478.817 749.875 490.254 757.741 502.915C767.037 516.315 777.086 530.723 787.509 545.92C798.312 561.335 808.638 577.05 817.911 592.748C826.139 607.829 832.311 622.317 835.898 635.874C837.153 648.088 835.12 658.949 829.543 668.344C821.147 676.1 809.483 682.262 794.979 687.025C778.497 690.682 760.039 693.49 740.217 695.766C719.86 697.8 699.155 699.939 678.638 702.455C658.976 705.566 640.256 709.505 622.79 714.402C607.013 720.322 592.778 727.315 580.104 735.292C569.304 744.262 559.947 753.979 551.886 764.172C545.41 774.923 539.903 785.692 535.163 796.126C529.944 811.144 522.17 834.411 518.932 841.238C512.842 841.85 500.225 822.083 493.642 811.004C488.248 804.017 481.828 797.2 474.321 790.922C465.676 786.181 455.776 782.508 444.629 780.09C432.312 779.531 418.893 780.211 404.528 781.948C389.428 784.934 373.853 788.304 358.118 791.599C342.479 794.73 327.649 796.689 313.89 797.021C300.965 795.876 289.435 792.512 279.353 786.81C270.329 779.152 262.692 769.17 256.292 757.1C250.659 743.462 245.924 728.266 241.807 711.907C237.919 694.886 234.25 677.367 230.574 659.743C226.588 642.396 222.342 625.44 217.719 609.11C212.512 593.676 206.91 579.077 200.939 565.381C194.472 552.782 187.785 541.035 181.089 530.093C174.184 520.162 167.523 510.86 161.342 502.104C152.697 490.328 140.661 469.14 137.962 459.318C137.525 450.139 144.018 431.94 150.641 422.691C155.677 416.494 161.585 410.04 168.231 403.302C174.673 396.362 181.552 389.015 188.725 381.214C195.28 373.023 201.867 364.276 208.421 354.971C214.114 345.17 219.584 335.021 224.836 324.578C229.346 313.725 233.827 302.686 238.348 291.519C242.477 280.125 246.93 268.784 251.794 257.578C256.678 246.366 262.253 235.451 268.552 224.918C275.236 214.625 282.801 204.855 291.267 195.688C300.237 186.964 310.129 178.956 320.813 171.741C331.999 165.118 343.853 159.387 356.242 154.605C368.909 150.54 381.916 147.497 395.056 145.543C408.23 144.351 421.343 144.289 434.234 145.348C446.972 147.111 459.364 149.975 471.322 153.855C483.056 158.213 494.371 163.444 505.259 169.39C516.055 175.436 526.565 181.891 536.843 188.601C547.298 194.888 557.738 201.084 568.238 207.027C579.197 212.086 590.388 216.655 601.872 220.684C613.91 223.664 626.274 226.107 638.913 228.1C651.95 229.344 665.105 230.471 678.202 231.698" stroke="url(#paint8_linear_30_829)" stroke-opacity="0.52" stroke-width="2.5" stroke-linecap="round" stroke-dasharray="6 2"/>
<path opacity="0.68" d="M680.243 255.229C692.603 256.96 704.185 259.121 714.825 261.851C725.085 265.1 734.165 269.197 741.951 274.207C749.092 280.001 754.838 286.728 759.182 294.295C762.811 302.564 765.082 311.475 766.007 320.824C766.376 330.559 765.54 340.44 763.597 350.269C761.375 360.07 758.227 369.571 754.263 378.634C750.369 387.41 745.882 395.65 740.969 403.342C734.155 414.179 721.637 433.922 716.932 443.651C714.734 454.048 717.165 478.652 722.286 493.679C727.637 504.799 734.018 516.957 741.288 530.128C749.658 543.892 758.47 558.442 767.392 573.593C776.48 588.784 784.952 604.109 792.296 619.28C798.641 633.734 803.081 647.515 805.146 660.296C805.2 671.718 802.328 681.807 796.344 690.421C787.939 697.421 776.685 702.841 762.895 706.87C747.373 709.781 730.042 711.768 711.379 713.167C692.137 714.197 672.416 715.206 652.675 716.431C633.534 718.074 615.014 720.341 597.46 723.374C581.249 727.266 566.32 732.03 552.766 737.605C540.835 744.068 530.28 751.13 521.03 758.605C513.302 766.62 506.69 774.621 501.063 782.33C478.474 802.394 462.263 777.292 453.109 769.35C445.477 765.532 436.536 762.546 426.297 760.506C414.911 760.003 402.374 760.386 388.855 761.503C374.63 763.626 359.85 765.924 344.855 767.99C329.921 769.939 315.692 770.777 302.412 770.19C289.934 768.398 278.721 764.655 268.866 758.846C260.085 751.398 252.63 741.881 246.395 730.453C241.031 717.638 236.608 703.305 232.907 687.783C229.59 671.552 226.634 654.699 223.857 637.526C220.978 620.426 217.986 603.496 214.811 586.973C211.239 571.098 207.4 555.889 203.313 541.446C198.834 527.936 194.204 515.259 189.592 503.4C184.772 492.511 180.197 482.364 176.023 472.907C170.242 460.27 163.086 438.564 162.32 429.109C163.399 420.602 171.882 404.674 179.043 396.879C184.289 391.693 190.327 386.296 197.042 380.647C203.525 374.791 210.43 368.513 217.656 361.781C224.281 354.631 231.015 346.921 237.777 338.616C243.749 329.783 249.545 320.552 255.192 310.994C260.144 300.973 265.073 290.725 270.058 280.338C274.613 269.701 279.447 259.092 284.615 248.617C289.717 238.133 295.38 227.97 301.63 218.216C308.104 208.734 315.325 199.82 323.247 191.566C331.543 183.807 340.578 176.839 350.254 170.755C360.311 165.311 370.9 160.837 381.915 157.385C393.154 154.678 404.661 153.047 416.261 152.515C427.919 152.742 439.521 154.055 450.928 156.452C462.262 159.485 473.329 163.501 484.044 168.441C494.673 173.746 504.995 179.777 514.968 186.385C525.006 193.001 534.837 199.9 544.538 206.942C554.511 213.55 564.537 219.999 574.651 226.157C585.261 231.519 596.121 236.398 607.217 240.766C618.888 244.217 630.811 247.185 642.903 249.74C655.405 251.654 667.908 253.409 680.231 255.221" stroke="url(#paint9_linear_30_829)" stroke-opacity="0.52" stroke-width="2.5" stroke-linecap="round" stroke-dasharray="11 5"/>
<path opacity="0.65" d="M677.163 275.634C688.685 277.854 699.365 280.332 709.076 283.211C722.467 288.5 741.958 303.387 747.735 313.071C751.131 324.303 750.578 349.51 747.096 362.754C744.192 371.727 740.462 380.529 736.052 389.088C731.749 397.58 727.015 405.744 722.019 413.577C715.259 425.088 703.648 447.398 699.658 458.873C698.375 466.932 697.885 475.469 698.276 484.587C700.022 494.318 702.729 504.838 706.369 516.184C711.279 528.206 716.979 541.071 723.298 554.741C730.444 568.822 737.791 583.482 745.051 598.497C752.344 613.446 758.908 628.335 764.379 642.921C768.912 656.735 771.692 669.761 772.372 681.751C771.318 692.398 767.718 701.704 761.394 709.516C753.048 715.782 742.219 720.481 729.221 723.778C714.706 725.953 698.56 727.156 681.18 727.636C663.234 727.702 644.728 727.561 626.081 727.459C607.813 727.609 589.964 728.173 572.853 729.264C556.793 731.03 541.793 733.478 527.972 736.551C515.554 740.366 504.395 744.702 494.517 749.336C482.384 757.088 465.496 771.9 460.185 777.762C451.407 773.038 439.572 750.859 431.497 744.518C424.627 741.584 416.453 739.199 406.992 737.487C396.457 737.034 384.778 737.162 372.128 737.742C358.82 739.109 344.937 740.459 330.79 741.479C316.711 742.385 303.239 742.282 290.595 740.879C278.701 738.521 267.974 734.442 258.493 728.591C250.061 721.369 242.897 712.318 236.949 701.583C231.91 689.61 227.852 676.233 224.61 661.694C221.892 646.47 219.673 630.522 217.793 614.153C215.999 597.72 214.287 581.276 212.553 565.055C210.641 549.305 208.596 534.043 206.417 519.415C203.987 505.571 201.501 492.475 199.036 480.169C196.42 468.76 194.022 458.125 191.935 448.263C189.186 435.077 187.214 413.003 188.509 403.775C191.223 395.724 201.812 381.396 209.515 374.694C218.064 367.994 237.835 353.287 248.477 344.837C255.129 338.619 261.917 331.862 268.766 324.543C274.915 316.67 280.937 308.387 286.842 299.776C292.099 290.687 297.346 281.37 302.618 271.924C307.477 262.2 312.538 252.501 317.846 242.936C323.028 233.367 328.62 224.129 334.667 215.331C340.82 206.78 347.534 198.843 354.78 191.607C362.268 184.85 370.306 178.938 378.833 173.951C387.611 169.599 396.804 166.245 406.294 163.948C415.971 162.345 425.836 161.843 435.762 162.419C445.748 163.686 455.686 166.002 465.477 169.329C475.278 173.198 484.875 177.959 494.212 183.517C503.591 189.382 512.745 195.83 521.689 202.744C530.804 209.604 539.832 216.674 548.795 223.805C558.16 230.506 567.593 237.021 577.156 243.248C587.28 248.763 597.629 253.842 608.181 258.413C619.333 262.247 630.666 265.63 642.09 268.604C653.925 271.064 665.677 273.368 677.143 275.637" stroke="url(#paint10_linear_30_829)" stroke-opacity="0.52" stroke-width="2.5" stroke-linecap="round" stroke-dasharray="6 5"/>
<path opacity="0.61" d="M670.264 292.796C680.896 295.387 690.698 298.106 699.523 301.098C711.669 306.312 728.873 319.986 733.69 328.565C736.235 338.5 734.39 360.815 730.487 372.749C727.352 380.982 723.49 389.202 719.053 397.347C714.737 405.598 710.092 413.736 705.283 421.751C700.949 429.889 696.716 437.978 692.733 446.093C689.544 454.454 686.822 462.992 684.692 471.831C683.594 481.088 683.233 490.814 683.668 501.119C685.229 511.98 687.581 523.513 690.684 535.742C694.779 548.526 699.467 561.964 704.555 575.966C710.234 590.271 715.956 604.905 721.45 619.688C726.869 634.29 731.569 648.671 735.21 662.574C738.011 675.683 739.271 687.933 738.663 699.074C736.621 708.924 732.395 717.428 725.839 724.44C717.599 729.981 707.275 733.972 695.083 736.544C681.635 738.02 666.759 738.441 650.783 738.076C634.265 737.198 617.204 735.963 599.946 734.575C582.892 733.287 566.12 732.188 549.909 731.404C534.509 731.135 519.981 731.335 506.476 731.965C494.135 733.241 482.948 734.886 472.95 736.793C432.814 746.761 426.656 733.183 423.44 726.994C418.154 721.753 400.534 713.6 387.914 711.195C378.12 710.756 367.25 710.638 355.461 710.727C343.091 711.435 330.172 711.974 316.964 712.085C303.844 712.119 291.221 711.207 279.36 709.155C268.182 706.321 258.077 702.016 249.113 696.183C241.152 689.246 234.399 680.704 228.822 670.684C224.181 659.636 220.542 647.309 217.784 633.906C215.667 619.859 214.175 605.076 213.157 589.815C212.4 574.412 211.893 558.878 211.549 543.447C211.173 528.319 210.832 513.551 210.514 499.29C210.041 485.65 209.603 472.682 209.235 460.435C208.773 448.961 208.499 438.273 208.505 428.353C208.759 415.038 211.992 393.002 215.367 384.027C219.761 376.31 232.558 363.177 240.846 357.27C249.711 351.46 269.581 338.855 280.143 331.615C286.776 326.224 293.563 320.346 300.409 313.956C306.648 307.017 312.77 299.722 318.787 292.103C324.221 283.995 329.632 275.691 335.046 267.273C340.056 258.561 345.184 249.893 350.468 241.401C355.583 232.858 360.97 224.649 366.677 216.895C372.379 209.37 378.464 202.451 384.929 196.253C394.999 188.04 417.097 176.954 428.904 174.356C441.063 173.755 465.8 178.629 478.076 183.918C486.294 188.205 494.39 193.298 502.314 199.077C510.388 205.084 518.331 211.597 526.174 218.47C534.312 225.271 542.419 232.219 550.568 239.184C559.168 245.767 567.912 252.165 576.812 258.272C586.293 263.779 596.008 268.909 605.901 273.591C616.383 277.643 627.015 281.301 637.664 284.606C648.73 287.478 659.649 290.163 670.243 292.798" stroke="url(#paint11_linear_30_829)" stroke-opacity="0.52" stroke-width="2.5" stroke-linecap="round" stroke-dasharray="4 3"/>
<path opacity="0.58" d="M660.918 307.031C675.146 311.336 698.692 321.001 707.431 326.817C716.684 336.261 720.884 347.36 720.381 359.802C718.081 374.046 712.216 389.053 703.921 404.405C696 420.832 687.501 437.53 679.623 454.743C674.468 473.326 671.332 493.343 670.743 515.237C673.747 539.202 679.072 565.377 685.91 593.327C694.26 621.915 701.627 650.495 706.043 677.395C707.225 689.74 707.082 701.137 705.354 711.388C702.434 720.433 697.682 728.105 690.993 734.302C682.936 739.137 673.159 742.424 661.87 744.307C649.513 745.127 635.965 744.843 621.496 743.682C591.229 739.894 559.864 734.763 529.553 729.568C501.645 725.838 477.058 723.29 456.682 721.674C434.46 722.142 414.185 719.657 411.712 713.189C410.751 708.661 408.774 702.315 404.499 694.898C397.303 690.103 386.043 685.74 370.41 682.224C361.236 681.714 351.101 681.341 340.159 680.969C328.69 681.084 316.746 680.932 304.552 680.304C292.42 679.593 280.772 678.023 269.785 675.459C259.427 672.304 250.038 667.865 241.723 662.142C227.911 648.011 218.607 628.587 213.339 604.947C210.848 579.036 210.804 550.938 212.331 522.362C214.386 494.539 216.962 468.122 220.059 444.124C222.965 422.68 226.776 404.141 232.02 388.66C237.527 375.63 245.077 364.984 254.967 356.361C264.983 348.73 277.07 341.819 290.914 335.008C300.872 329.301 321.281 315.88 331.42 307.856C337.665 301.794 343.785 295.443 349.802 288.823C355.3 281.728 360.736 274.468 366.13 267.147C375.842 251.595 385.947 236.684 396.552 223.26C406.89 210.438 418.246 200.364 430.342 193.608C442.795 188.816 455.844 187.902 468.962 190.855C482.468 195.803 495.866 204.133 508.845 215.183C522.715 226.873 536.639 239.918 550.75 253.355C566.865 265.465 583.847 276.704 601.55 286.535C611.258 290.694 621.09 294.502 630.931 297.988C641.144 301.143 651.181 304.123 660.898 307.031" stroke="url(#paint12_linear_30_829)" stroke-opacity="0.52" stroke-width="2.5" stroke-linecap="round" stroke-dasharray="1 5"/>
<path opacity="0.54" d="M650.443 318.987C668.165 325.147 682.507 331.673 692.884 338.963C701.412 347.784 705.379 357.931 705.167 369.285C703.269 382.377 698.178 396.468 690.935 411.344C683.86 427.631 676.265 444.785 669.196 462.937C664.251 482.747 660.935 504.142 659.632 527.291C661.034 552.249 664.119 578.921 668.152 606.647C673.095 634.586 676.928 661.885 678.152 687.018C676.848 709.038 670.552 726.628 658.264 738.677C641.57 745.721 619.854 747.131 594.626 744.132C567.602 738.894 539.675 731.724 512.601 723.841C487.237 716.927 464.678 710.563 445.799 704.837C430.203 700.936 418.455 697.134 410.348 692.775C403.053 687.391 395.822 671.679 389.433 662.455C381.796 658.541 370.621 654.858 355.702 651.549C337.732 650.751 316.969 649.569 294.741 646.967C272.777 644.134 253.235 637.744 237.296 627.324C224.666 614.223 216.348 596.701 212.066 575.664C210.633 552.683 212.019 527.725 215.441 502.202C219.83 477.114 225.241 453.075 231.473 431.119C237.722 411.174 244.82 393.874 253.038 379.484C261.315 367.108 271.055 357.146 282.446 349.258C293.694 342.158 306.366 335.967 320.3 330.126C333.179 323.286 346.65 315.612 360.402 306.775C372.289 295.799 383.699 284.016 394.593 271.888C404.108 258.441 413.651 245.71 423.237 234.422C432.377 223.469 441.996 215.095 451.855 209.804C461.876 206.025 472.159 205.817 482.386 209.088C493.053 213.919 503.715 221.777 514.215 232.018C525.807 242.68 537.778 254.568 550.171 266.825C564.645 277.971 580.07 288.493 596.218 297.911C614.465 305.752 632.864 312.681 650.422 318.986" stroke="url(#paint13_linear_30_829)" stroke-opacity="0.52" stroke-width="2.5" stroke-linecap="round" stroke-dasharray="2 2"/>
<path opacity="0.51" d="M639.936 329.693C656.008 336.12 669.122 342.759 678.751 349.979C686.773 358.421 690.822 367.985 691.192 378.669C690.027 390.979 686.018 404.486 680.044 419.063C674.011 435.237 667.397 452.672 661.063 471.404C656.215 491.872 652.533 513.972 650.308 537.626C649.919 562.8 650.664 589.205 651.936 616.054C653.63 642.78 654.229 668.374 652.631 691.452C648.925 711.556 641.241 727.267 628.896 737.579C613.077 743.385 593.473 743.706 571.29 739.627C547.543 733.281 523.169 724.612 499.586 714.742C477.125 705.392 457.02 696.128 440.04 687.206C425.473 679.952 414.243 672.931 406.149 665.857C397.701 657.246 386.836 639.584 378.842 631.01C370.468 627.383 359.189 623.891 344.842 620.492C327.9 619.02 308.747 616.907 288.553 613.325C268.612 609.567 250.962 602.842 236.651 592.878C225.26 580.904 217.954 565.392 214.584 547.031C213.986 527.141 216.444 505.561 221.282 483.476C227.375 461.605 234.883 440.563 243.458 421.266C252.267 403.469 261.923 387.992 272.482 375.124C282.992 363.845 294.518 354.794 307.126 347.77C319.387 341.254 332.583 335.734 346.523 330.749C359.481 324.729 372.728 318.174 386.054 310.836C397.783 301.425 408.878 291.505 419.273 281.441C428.438 269.999 437.306 259.321 445.832 249.997C453.851 240.731 461.891 233.794 469.804 229.614C477.763 226.525 485.735 226.566 493.563 229.653C501.886 233.91 510.286 240.805 518.727 249.791C528.398 259.029 538.619 269.413 549.481 280.244C562.357 290.169 576.23 299.732 590.856 308.547C607.356 316.177 624.015 323.149 639.936 329.693Z" stroke="url(#paint14_linear_30_829)" stroke-opacity="0.52" stroke-width="2.5" stroke-linecap="round" stroke-dasharray="10 8"/>
<path opacity="0.47" d="M630.172 340.253C644.663 346.851 656.645 353.673 665.663 360.987C673.31 369.276 677.556 378.562 678.647 388.947C678.335 400.784 675.493 413.916 670.862 428.32C665.92 444.306 660.245 461.772 654.575 480.661C649.783 501.199 645.657 523.279 642.432 546.675C640.343 571.263 638.894 596.62 637.648 621.964C636.448 646.906 634.283 670.383 630.351 691.152C624.674 709.166 615.976 722.918 603.838 731.547C588.995 736.178 571.499 735.598 552.247 730.753C531.698 723.714 510.828 714.124 490.723 702.998C471.275 692.065 453.774 680.829 438.821 669.714C425.527 660.021 414.952 650.652 406.938 641.553C400.045 634.044 394.774 626.591 390.392 619.122C385.451 613.315 379.895 607.533 372.943 601.826C363.79 597.984 352.339 594.26 338.514 590.491C322.537 588.185 304.959 585.176 286.759 580.822C268.766 576.329 253.016 569.484 240.357 560.158C230.191 549.351 223.853 535.849 221.275 520.209C221.278 503.4 224.403 485.286 230.087 466.81C237.19 448.402 246.004 430.678 256.092 414.406C266.561 399.199 277.942 385.952 290.081 374.962C302.146 365.096 314.908 357.211 328.306 351.19C341.314 345.377 354.801 340.564 368.626 336.386C381.556 331.137 394.525 325.633 407.318 319.63C418.794 311.692 429.466 303.502 439.266 295.299C448.018 285.72 456.177 276.91 463.736 269.331C474.156 258.667 493.323 249.669 502.439 252.249C508.989 255.601 515.669 261.245 522.554 268.741C530.685 276.335 539.489 285.062 549.045 294.305C560.465 302.861 572.886 311.36 586.04 319.456C600.834 326.661 615.806 333.553 630.172 340.253Z" stroke="url(#paint15_linear_30_829)" stroke-opacity="0.52" stroke-width="2.5" stroke-linecap="round" stroke-dasharray="1 1"/>
<path opacity="0.44" d="M621.478 351.79C634.501 358.518 645.413 365.541 653.847 373.074C661.175 381.35 665.621 390.607 667.4 400.922C667.901 412.47 666.172 425.364 662.756 439.576C658.848 455.24 654.066 472.428 648.97 490.998C644.241 511.013 639.707 532.385 635.598 554.78C632.034 578.025 628.712 601.687 625.358 624.945C621.817 647.618 617.444 668.627 611.713 686.889C604.581 702.651 595.285 714.426 583.543 721.466C569.767 725.002 554.32 723.741 537.803 718.452C520.24 711.13 502.644 701.19 485.793 689.532C469.246 677.815 454.276 665.521 441.327 653.186C429.366 641.969 419.49 631.08 411.602 620.643C404.239 611.693 398.094 603.152 392.569 594.979C386.297 588.373 379.501 582.088 371.617 576.113C361.804 571.682 350.251 567.398 336.998 563.071C321.996 559.81 305.935 555.946 289.666 550.969C273.587 545.881 259.661 539.086 248.598 530.492C239.602 520.885 234.135 509.346 232.18 496.342C232.491 482.463 235.912 467.707 241.931 452.794C249.383 437.845 258.708 423.499 269.447 410.395C280.694 397.96 292.901 387.15 305.791 378.243C318.658 370.025 332.01 363.488 345.719 358.553C359.039 353.59 372.542 349.553 386.053 346.171C398.821 341.715 411.388 337.173 423.579 332.392C434.707 325.811 444.888 319.17 454.059 312.626C462.387 304.745 469.926 297.576 476.668 291.478C493.805 278.616 517.168 280.928 525.742 289.021C532.759 294.958 540.5 301.997 548.99 309.683C559.157 316.851 570.262 324.236 582.047 331.598C595.219 338.29 608.589 345.002 621.478 351.79Z" stroke="url(#paint16_linear_30_829)" stroke-opacity="0.52" stroke-width="2.5" stroke-linecap="round" stroke-dasharray="9 2"/>
<path opacity="0.4" d="M613.844 365.241C625.447 372.035 635.323 379.264 643.164 387.062C650.106 395.42 654.665 404.733 656.939 415.067C658.131 426.412 657.325 439.059 654.945 452.977C651.94 468.103 647.931 484.66 643.35 502.463C638.739 521.392 633.942 541.458 629.162 562.218C624.506 583.521 619.764 604.915 614.841 625.648C609.573 645.686 603.616 663.977 596.673 679.622C588.637 693.067 579.107 702.878 567.979 708.42C555.362 710.995 541.815 709.231 527.774 703.842C512.908 696.593 498.225 686.788 484.247 675.278C470.328 663.492 457.648 650.946 446.512 638.22C435.818 626.319 426.661 614.685 418.928 603.518C411.27 593.654 404.428 584.315 397.97 575.552C390.659 568.161 382.921 561.259 374.351 554.787C364.136 549.539 352.697 544.524 340.121 539.518C326.155 535.3 311.622 530.63 297.221 525.175C282.965 519.648 270.792 512.989 261.218 505.219C253.315 496.733 248.593 487.027 247.052 476.46C247.456 465.27 250.784 453.592 256.644 441.979C263.851 430.284 272.993 419.165 283.603 409.095C294.794 399.407 306.983 391.036 319.86 384.217C332.756 377.731 346.054 372.614 359.525 368.831C372.682 364.812 385.851 361.605 398.828 358.998C411.186 355.343 423.205 351.726 434.713 348.037C445.415 342.722 455.064 337.458 463.646 332.347C475.078 323.111 493.139 307.986 500.3 303.565C507.109 300.869 520.579 304.713 528.208 310.738C534.514 315.151 541.491 320.651 549.178 326.925C558.312 332.791 568.249 339.123 578.794 345.758C590.491 351.919 602.344 358.394 613.844 365.241Z" stroke="url(#paint17_linear_30_829)" stroke-opacity="0.52" stroke-width="2.5" stroke-linecap="round" stroke-dasharray="7 9"/>
<path opacity="0.37" d="M606.832 381.214C617.093 388.023 625.931 395.41 633.095 403.418C639.556 411.83 644.051 421.19 646.633 431.507C648.269 442.599 648.161 454.864 646.571 468.287C644.322 482.635 640.972 498.219 636.852 514.806C632.454 532.206 627.586 550.453 622.413 569.112C617.093 588.023 611.469 606.776 605.547 624.702C599.225 641.86 592.329 657.34 584.741 670.367C576.326 681.489 566.937 689.404 556.568 693.608C545.156 695.315 533.351 693.271 521.456 688.016C508.932 681.138 496.725 671.908 485.174 661.026C473.507 649.748 462.788 637.63 453.178 625.208C443.663 613.317 435.18 601.581 427.652 590.271C419.891 579.961 412.605 570.181 405.538 561.04C397.591 552.979 389.267 545.456 380.364 538.444C370.119 532.358 359.055 526.549 347.326 520.892C334.532 515.759 321.522 510.415 308.905 504.605C296.423 498.74 285.866 492.323 277.651 485.326C268.691 473.853 267.114 448.027 273.889 434.801C280.391 425.968 288.773 417.728 298.609 410.387C309.044 403.192 320.52 397.084 332.647 392.194C344.886 387.384 357.517 383.662 370.253 380.99C382.758 377.954 395.213 375.558 407.389 373.707C419.093 370.879 430.419 368.13 441.166 365.401C451.329 361.236 460.421 357.201 468.479 353.345C479.358 346.075 496.467 333.985 503.217 330.263C516.104 328.558 538.907 339.1 549.241 346.275C557.524 351.041 566.456 356.488 575.881 362.473C586.214 368.127 596.679 374.36 606.832 381.214Z" stroke="url(#paint18_linear_30_829)" stroke-opacity="0.52" stroke-width="2.5" stroke-linecap="round" stroke-dasharray="2 5"/>
<path opacity="0.33" d="M599.812 399.874C608.759 406.623 616.533 414.054 622.943 422.153C628.796 430.52 633.029 439.799 635.669 449.933C637.531 460.596 637.854 472.313 636.829 484.971C635.139 498.259 632.352 512.542 628.689 527.558C624.613 543.087 619.857 559.158 614.613 575.381C609.082 591.625 603.113 607.54 596.753 622.538C590.012 636.785 582.776 649.455 575.059 659.955C566.75 668.865 557.821 675.019 548.324 678.028C538.148 679.012 527.913 676.847 517.834 671.939C507.296 665.642 497.132 657.284 487.525 647.39C477.719 637.054 468.599 625.833 460.244 614.227C451.739 602.904 443.904 591.598 436.641 580.606C428.982 570.307 421.553 560.455 414.212 551.175C406.06 542.684 397.588 534.705 388.755 527.251C378.845 520.445 368.448 513.975 357.734 507.754C346.247 501.891 334.795 496 323.889 489.984C313.112 483.939 304.073 477.777 297.086 471.514C289.273 461.624 287.522 441.321 293.178 431.574C298.659 425.103 305.874 419.227 314.479 414.159C323.64 409.085 333.844 404.891 344.717 401.657C355.742 398.325 367.163 395.832 378.739 394.151C390.168 392.041 401.555 390.44 412.677 389.286C423.473 387.223 433.918 385.265 443.841 383.409C457.602 378.814 479.839 369.04 488.629 364.511C503.185 357 522.911 354.967 530.153 358.05C538.96 361.957 560.269 374.053 572.689 381.87C581.781 387.101 590.929 393.086 599.812 399.874Z" stroke="url(#paint19_linear_30_829)" stroke-opacity="0.52" stroke-width="2.5" stroke-linecap="round" stroke-dasharray="11 11"/>
<path opacity="0.3" d="M591.972 420.9C607.223 434.157 617.869 450.544 623.336 469.624C626.385 490.073 624.286 513.995 618.227 540.023C610.463 567.028 599.919 594.622 587.623 619.447C574.043 641.439 558.622 656.869 541.989 662.475C523.664 661.735 506.061 651.374 490.12 634.682C473.316 616.042 458.282 594.876 444.906 573.957C429.764 554.684 414.425 536.752 398.512 520.946C379.376 506.834 359.467 493.78 341.135 481.571C323.142 469.269 312.151 457.75 308.927 447.381C309.418 436.291 317.472 426.937 331.133 420.32C346.762 413.305 365.772 409.085 385.949 407.715C405.866 404.491 425.688 402.43 443.956 401.17C461.112 395.816 475.141 391.281 486.23 388.029C497.121 382.315 506.353 379.536 514.59 380.18C524.525 380.044 535.21 383.736 546.897 391.005C561.409 397.629 576.998 407.552 591.972 420.9Z" stroke="url(#paint20_linear_30_829)" stroke-opacity="0.52" stroke-width="2.5" stroke-linecap="round" stroke-dasharray="9 10"/>
<path opacity="0.26" d="M582.585 443.488C595.421 456.184 604.384 471.783 609.026 489.555C611.912 508.086 610.344 529.159 605.09 551.337C598.368 573.782 588.786 596.03 577.358 615.429C564.953 632.355 550.989 643.792 536.217 647.334C520.485 646.057 505.552 637.083 491.949 622.886C477.588 606.858 464.207 588.303 451.772 569.557C437.702 551.575 423.309 534.359 408.688 518.891C391.76 504.412 374.714 491.046 359.473 479.075C344.505 467.05 335.294 456.783 332.305 448.435C331.969 439.625 337.83 432.902 348.444 428.724C360.678 423.994 376.089 421.546 392.876 421.326C409.656 419.376 426.734 418.381 442.884 418.186C458.376 414.661 471.503 411.914 482.34 410.168C493.219 406.265 502.829 404.573 511.617 405.525C521.768 405.618 532.353 408.892 543.385 415.403C556.453 421.427 569.958 430.72 582.585 443.488Z" stroke="url(#paint21_linear_30_829)" stroke-opacity="0.52" stroke-width="2.5" stroke-linecap="round" stroke-dasharray="1 8"/>
<path opacity="0.23" d="M571.039 466.439C581.53 478.317 588.743 492.586 592.408 508.442C594.894 524.635 593.647 542.47 589.178 560.607C583.605 578.539 575.383 595.767 565.347 610.274C554.669 622.758 542.59 630.782 529.8 632.675C516.548 631.044 503.894 623.472 492.183 611.745C479.901 598.412 468.096 582.712 456.796 566.486C444.232 550.417 431.367 534.625 418.558 520.123C404.219 506.094 390.156 493.121 377.87 481.721C362.009 465.714 356.479 444.473 366.204 439.232C375.189 435.935 387.03 434.555 400.368 434.964C413.857 433.878 428.041 433.671 441.951 434.269C455.529 432.314 467.556 431.1 477.997 430.721C488.556 428.584 498.28 428.139 507.321 429.735C517.359 430.517 527.556 433.89 537.728 440.026C549.253 445.802 560.721 454.537 571.039 466.439Z" stroke="url(#paint22_linear_30_829)" stroke-opacity="0.52" stroke-width="2.5" stroke-linecap="round" stroke-dasharray="2 1"/>
<path opacity="0.19" d="M557.062 488.303C565.309 498.99 570.806 511.466 573.466 524.901C575.414 538.415 574.357 552.782 570.671 566.876C566.27 580.58 559.585 593.285 551.252 603.552C542.563 612.305 532.592 617.555 521.876 618.195C510.992 616.413 500.415 610.182 490.409 600.76C480.037 590.073 469.843 577.292 459.935 563.787C449.196 550.12 438.273 536.349 427.628 523.423C416.057 510.664 404.955 498.752 395.438 488.343C380.349 464.789 394.596 448.673 409.016 448.803C419.324 448.206 430.618 448.494 442.19 449.627C453.649 448.921 464.296 448.975 473.968 449.771C483.798 449.252 493.119 450.057 501.889 452.426C511.33 454.117 520.707 457.851 529.694 463.781C539.529 469.463 548.931 477.578 557.062 488.303Z" stroke="url(#paint23_linear_30_829)" stroke-opacity="0.52" stroke-width="2.5" stroke-linecap="round" stroke-dasharray="5 5"/>
<path opacity="0.16" d="M540.675 507.476C552.812 525.827 555.591 548.485 550.056 569.347C543.038 588.65 529.226 602.364 512.031 603.381C494.827 598.417 477.373 581.607 461.423 560.594C443.612 538.521 425.417 515.557 411.658 497.519C396.811 474.25 418.082 460.829 444.218 464.72C462.584 463.874 480.276 466.701 495.541 473.223C512.466 477.867 528.845 489.108 540.675 507.476Z" stroke="url(#paint24_linear_30_829)" stroke-opacity="0.52" stroke-width="2.5" stroke-linecap="round" stroke-dasharray="4 9"/>
<path opacity="0.12" d="M522.327 522.461C530.704 537.072 532.305 553.449 528.065 567.357C523.264 580.147 513.382 588.346 500.44 587.696C487.701 583.748 474.19 571.606 461.79 556.176C448.58 539.861 435.63 522.185 426.307 507.707C416.095 488.865 429.368 476.758 448.11 480.079C461.824 480.805 475.973 484.942 488.458 491.835C501.747 497.575 514.111 507.86 522.327 522.461Z" stroke="url(#paint25_linear_30_829)" stroke-opacity="0.52" stroke-width="2.5" stroke-linecap="round" stroke-dasharray="2 6"/>
<path opacity="0.09" d="M502.755 532.006C512.712 552.455 505.187 571.945 487.779 570.642C471.104 563.697 450.375 537.895 439.582 517.531C429.11 497.193 435.892 489.668 453.38 496.245C471.531 497.731 493.089 511.594 502.755 532.006Z" stroke="url(#paint26_linear_30_829)" stroke-opacity="0.52" stroke-width="2.5" stroke-linecap="round" stroke-dasharray="1 7"/>
<defs>
<linearGradient id="paint0_linear_30_829" x1="523.034" y1="22.1021" x2="523.034" y2="979.27" gradientUnits="userSpaceOnUse">
<stop stop-color="#1F89DB"/>
<stop offset="1" stop-color="#F42A8B"/>
</linearGradient>
<linearGradient id="paint1_linear_30_829" x1="551.481" y1="41.6733" x2="491.152" y2="964.394" gradientUnits="userSpaceOnUse">
<stop stop-color="#1F89DB"/>
<stop offset="1" stop-color="#F42A8B"/>
</linearGradient>
<linearGradient id="paint2_linear_30_829" x1="577.554" y1="62.8886" x2="461.376" y2="947.559" gradientUnits="userSpaceOnUse">
<stop stop-color="#1F89DB"/>
<stop offset="1" stop-color="#F42A8B"/>
</linearGradient>
<linearGradient id="paint3_linear_30_829" x1="601.178" y1="85.5502" x2="433.836" y2="928.972" gradientUnits="userSpaceOnUse">
<stop stop-color="#1F89DB"/>
<stop offset="1" stop-color="#F42A8B"/>
</linearGradient>
<linearGradient id="paint4_linear_30_829" x1="622.279" y1="109.41" x2="408.624" y2="908.847" gradientUnits="userSpaceOnUse">
<stop stop-color="#1F89DB"/>
<stop offset="1" stop-color="#F42A8B"/>
</linearGradient>
<linearGradient id="paint5_linear_30_829" x1="640.846" y1="134.265" x2="385.866" y2="887.412" gradientUnits="userSpaceOnUse">
<stop stop-color="#1F89DB"/>
<stop offset="1" stop-color="#F42A8B"/>
</linearGradient>
<linearGradient id="paint6_linear_30_829" x1="656.909" y1="159.912" x2="365.683" y2="864.928" gradientUnits="userSpaceOnUse">
<stop stop-color="#1F89DB"/>
<stop offset="1" stop-color="#F42A8B"/>
</linearGradient>
<linearGradient id="paint7_linear_30_829" x1="670.358" y1="186.101" x2="348.023" y2="841.6" gradientUnits="userSpaceOnUse">
<stop stop-color="#1F89DB"/>
<stop offset="1" stop-color="#F42A8B"/>
</linearGradient>
<linearGradient id="paint8_linear_30_829" x1="681.501" y1="212.785" x2="333.226" y2="817.821" gradientUnits="userSpaceOnUse">
<stop stop-color="#1F89DB"/>
<stop offset="1" stop-color="#F42A8B"/>
</linearGradient>
<linearGradient id="paint9_linear_30_829" x1="689.896" y1="239.535" x2="320.907" y2="793.509" gradientUnits="userSpaceOnUse">
<stop stop-color="#1F89DB"/>
<stop offset="1" stop-color="#F42A8B"/>
</linearGradient>
<linearGradient id="paint10_linear_30_829" x1="694.16" y1="268.119" x2="311.189" y2="768.89" gradientUnits="userSpaceOnUse">
<stop stop-color="#1F89DB"/>
<stop offset="1" stop-color="#F42A8B"/>
</linearGradient>
<linearGradient id="paint11_linear_30_829" x1="697.29" y1="294.155" x2="304.04" y2="744.181" gradientUnits="userSpaceOnUse">
<stop stop-color="#1F89DB"/>
<stop offset="1" stop-color="#F42A8B"/>
</linearGradient>
<linearGradient id="paint12_linear_30_829" x1="698.949" y1="318.367" x2="299.337" y2="719.532" gradientUnits="userSpaceOnUse">
<stop stop-color="#1F89DB"/>
<stop offset="1" stop-color="#F42A8B"/>
</linearGradient>
<linearGradient id="paint13_linear_30_829" x1="697.16" y1="343.734" x2="297.454" y2="695.755" gradientUnits="userSpaceOnUse">
<stop stop-color="#1F89DB"/>
<stop offset="1" stop-color="#F42A8B"/>
</linearGradient>
<linearGradient id="paint14_linear_30_829" x1="693.135" y1="368.175" x2="297.84" y2="672.919" gradientUnits="userSpaceOnUse">
<stop stop-color="#1F89DB"/>
<stop offset="1" stop-color="#F42A8B"/>
</linearGradient>
<linearGradient id="paint15_linear_30_829" x1="686.991" y1="391.549" x2="300.393" y2="651.223" gradientUnits="userSpaceOnUse">
<stop stop-color="#1F89DB"/>
<stop offset="1" stop-color="#F42A8B"/>
</linearGradient>
<linearGradient id="paint16_linear_30_829" x1="678.851" y1="413.733" x2="305" y2="630.867" gradientUnits="userSpaceOnUse">
<stop stop-color="#1F89DB"/>
<stop offset="1" stop-color="#F42A8B"/>
</linearGradient>
<linearGradient id="paint17_linear_30_829" x1="668.838" y1="434.63" x2="311.549" y2="612.047" gradientUnits="userSpaceOnUse">
<stop stop-color="#1F89DB"/>
<stop offset="1" stop-color="#F42A8B"/>
</linearGradient>
<linearGradient id="paint18_linear_30_829" x1="657.061" y1="454.168" x2="322.051" y2="594.077" gradientUnits="userSpaceOnUse">
<stop stop-color="#1F89DB"/>
<stop offset="1" stop-color="#F42A8B"/>
</linearGradient>
<linearGradient id="paint19_linear_30_829" x1="643.582" y1="472.204" x2="332.316" y2="578.931" gradientUnits="userSpaceOnUse">
<stop stop-color="#1F89DB"/>
<stop offset="1" stop-color="#F42A8B"/>
</linearGradient>
<linearGradient id="paint20_linear_30_829" x1="628.464" y1="488.52" x2="341.251" y2="566.474" gradientUnits="userSpaceOnUse">
<stop stop-color="#1F89DB"/>
<stop offset="1" stop-color="#F42A8B"/>
</linearGradient>
<linearGradient id="paint21_linear_30_829" x1="611.761" y1="503.066" x2="353.932" y2="555.261" gradientUnits="userSpaceOnUse">
<stop stop-color="#1F89DB"/>
<stop offset="1" stop-color="#F42A8B"/>
</linearGradient>
<linearGradient id="paint22_linear_30_829" x1="593.389" y1="515.566" x2="374.167" y2="545.221" gradientUnits="userSpaceOnUse">
<stop stop-color="#1F89DB"/>
<stop offset="1" stop-color="#F42A8B"/>
</linearGradient>
<linearGradient id="paint23_linear_30_829" x1="573.793" y1="525.964" x2="393.725" y2="538.439" gradientUnits="userSpaceOnUse">
<stop stop-color="#1F89DB"/>
<stop offset="1" stop-color="#F42A8B"/>
</linearGradient>
<linearGradient id="paint24_linear_30_829" x1="552.724" y1="533.411" x2="406.961" y2="533.976" gradientUnits="userSpaceOnUse">
<stop stop-color="#1F89DB"/>
<stop offset="1" stop-color="#F42A8B"/>
</linearGradient>
<linearGradient id="paint25_linear_30_829" x1="531.334" y1="537.277" x2="420.578" y2="530.467" gradientUnits="userSpaceOnUse">
<stop stop-color="#1F89DB"/>
<stop offset="1" stop-color="#F42A8B"/>
</linearGradient>
<linearGradient id="paint26_linear_30_829" x1="508.993" y1="537.774" x2="431.199" y2="527.865" gradientUnits="userSpaceOnUse">
<stop stop-color="#1F89DB"/>
<stop offset="1" stop-color="#F42A8B"/>
</linearGradient>
</defs>
</svg>
