<svg width="1440" height="1024" viewBox="0 0 1440 1024" fill="none" xmlns="http://www.w3.org/2000/svg">
<g clip-path="url(#clip0_51_32)">
<path d="M0 494.632L131.2 471.263L262.4 307.684L392 284.316L523.2 424.526L654.4 494.632L785.6 331.053L916.8 447.895L1048 494.632L1177.6 307.684L1308.8 401.158L1440 518V0H1308.8H1177.6H1048H916.8H785.6H654.4H523.2H392H262.4H131.2H0V494.632Z" fill="#06083D"/>
<path d="M0 791L131.2 737.621L262.4 566.807L392 652.214L523.2 662.89L654.4 630.862L785.6 652.214L916.8 662.89L1048 620.186L1177.6 673.566L1308.8 652.214H1440V381.759L1308.8 328.379L1177.6 285.676L1048 371.083L916.8 349.731L785.6 296.352L654.4 371.083L523.2 339.055L392 275L262.4 285.676L131.2 360.407L0 371.083V791Z" fill="#14104B"/>
<path d="M0 871L131.2 855.904L262.4 584.181L392 780.426L523.2 765.33L654.4 674.755L785.6 720.043L916.8 765.33L1048 735.138L1177.6 810.617L1308.8 795.521L1440 720.043V518.766H1308.8L1177.6 548.957L1048 473.479L916.8 533.862L785.6 518.766L654.4 488.574L523.2 533.862L392 518.766L262.4 398L131.2 639.532L0 715.011V871Z" fill="#24165A"/>
<path d="M0 926L131.2 899H262.4H392L523.2 944L654.4 899L785.6 944L916.8 917L1048 935L1177.6 908L1308.8 944L1440 890V653L1308.8 698L1177.6 707L1048 662L916.8 680L785.6 653L654.4 626L523.2 680L392 689L262.4 572L131.2 734L0 743V926Z" fill="#341C69"/>
<path d="M0 1025.71H131.2H262.4H392H523.2H654.4H785.6H916.8H1048H1177.6H1308.8H1440V878.933L1308.8 940.373L1177.6 899.413L1048 930.133L916.8 909.653L785.6 940.373L654.4 889.173L523.2 940.373L392 889.173H262.4H131.2L0 919.893V1025.71Z" fill="#452277"/>
</g>
<defs>
<clipPath id="clip0_51_32">
<rect width="1440" height="1024" fill="white"/>
</clipPath>
</defs>
</svg>
