<svg width="1550" height="1033" viewBox="0 0 1550 1033" fill="none" xmlns="http://www.w3.org/2000/svg">
<g clip-path="url(#clip0_45_87)">
<path d="M1550 0H0V1033H1550V0Z" fill="#06083D"/>
<path d="M1550 791.45C1465.96 734.979 1381.91 678.337 1281.16 648.896C1180.41 619.628 1062.96 617.217 990.106 559.714C917.428 502.038 889.011 389.097 857.839 286.657C826.667 184.046 792.394 92.1092 758.294 0H1550V791.45Z" fill="#090B41"/>
<path d="M1550 692.454C1476.46 643.043 1402.92 593.631 1314.74 567.806C1226.57 542.153 1123.92 540.087 1060.2 489.642C996.478 439.197 971.678 340.374 944.294 250.847C917.083 161.148 887.117 80.574 857.322 0H1550V692.454Z" fill="#121049"/>
<path d="M1550 593.631C1486.97 551.278 1423.93 508.753 1348.33 486.715C1272.72 464.678 1184.72 462.956 1130.12 419.742C1075.53 376.529 1054.34 291.823 1030.92 215.036C1007.5 138.078 981.839 69.0388 956.178 0H1550V593.631Z" fill="#1B1352"/>
<path d="M1550 494.635C1497.47 459.341 1444.94 424.046 1381.91 405.625C1319.05 387.203 1245.68 385.825 1200.04 349.843C1154.58 313.688 1137.01 243.099 1117.38 179.053C1097.92 115.007 1076.56 57.5037 1055.21 0H1550V494.635Z" fill="#24165A"/>
<path d="M1550 395.811C1507.98 367.404 1465.96 339.168 1415.49 324.534C1365.21 309.728 1306.48 308.695 1270.14 279.771C1233.63 251.019 1219.51 194.548 1204.01 143.243C1188.33 92.1092 1171.28 45.9685 1154.06 0H1550V395.811Z" fill="#2D1A62"/>
<path d="M1550 296.815C1518.48 275.639 1486.97 254.462 1449.08 243.444C1411.36 232.253 1367.44 231.392 1340.06 209.871C1312.68 188.178 1302.17 145.825 1290.46 107.432C1278.75 69.0388 1266.01 34.6055 1253.09 0H1550V296.815Z" fill="#371D6B"/>
<path d="M1550 197.82C1528.99 183.702 1507.98 169.584 1482.83 162.181C1457.52 154.95 1428.24 154.261 1409.98 139.972C1391.9 125.51 1384.84 97.2742 1376.92 71.6213C1369.17 45.9685 1360.56 23.0703 1352.12 0H1550V197.82Z" fill="#402073"/>
<path d="M1550 98.9958C1539.49 91.937 1528.99 84.8782 1516.42 81.0905C1503.84 77.475 1489.21 77.1307 1480.08 69.8997C1470.95 62.6687 1467.33 48.551 1463.54 35.8107C1459.58 23.0703 1455.28 11.5352 1450.97 0H1550V98.9958Z" fill="#452277"/>
<path d="M0 242C108.844 253.707 217.517 265.415 296.567 317.753C375.617 369.92 424.7 462.89 500.478 533.134C576.256 603.378 678.556 650.896 731.428 730.609C784.472 810.15 788.089 921.886 791.706 1033.45H0V242Z" fill="#090B41"/>
<path d="M0 340.996C95.2389 351.154 190.306 361.312 259.539 407.108C328.6 452.904 371.656 534.167 437.961 595.63C504.267 657.094 593.65 698.758 639.978 768.486C686.306 838.041 689.578 935.832 692.678 1033.45H0V340.996Z" fill="#121049"/>
<path d="M0 439.82C81.6333 448.6 163.267 457.381 222.511 496.635C281.756 535.889 318.611 605.444 375.444 658.127C432.106 710.81 508.917 746.621 548.528 806.362C588.311 865.932 591.067 949.777 593.822 1033.45H0V439.82Z" fill="#1B1352"/>
<path d="M0 538.815C68.0278 546.046 136.056 553.45 185.311 586.161C234.739 618.701 265.567 676.893 312.756 720.796C360.117 764.698 424.011 794.311 457.078 844.067C490.317 893.995 492.556 963.723 494.794 1033.45H0V538.815Z" fill="#24165A"/>
<path d="M0 637.639C54.4222 643.493 108.844 649.346 148.283 675.516C187.722 701.685 212.35 748.17 250.239 783.292C288.128 818.414 339.278 842.173 365.8 881.944C392.15 921.886 394.044 977.668 395.939 1033.45H0V637.639Z" fill="#2D1A62"/>
<path d="M0 736.635C40.8167 741.111 81.6333 745.415 111.256 765.042C140.878 784.669 159.306 819.447 187.722 845.789C216.139 872.13 254.372 890.035 274.35 919.82C294.156 949.777 295.533 991.614 296.911 1033.45H0V736.635Z" fill="#371D6B"/>
<path d="M0 835.631C27.2111 838.558 54.4222 841.484 74.2278 854.569C93.8611 867.654 106.261 890.724 125.206 908.285C143.978 925.846 169.639 937.898 182.9 957.697C196.161 977.668 197.022 1005.56 197.883 1033.45H0V835.631Z" fill="#402073"/>
<path d="M0 934.454C13.6056 936.004 27.2111 937.381 37.0278 943.924C47.0167 950.466 53.0444 962.173 62.5167 970.954C71.9889 979.734 84.7333 985.588 91.45 995.574C97.9944 1005.56 98.5111 1019.5 99.0278 1033.45H0V934.454Z" fill="#452277"/>
</g>
<defs>
<clipPath id="clip0_45_87">
<rect width="1550" height="1033" fill="white"/>
</clipPath>
</defs>
</svg>
