<svg width="1550" height="1024" viewBox="0 0 1550 1024" fill="none" xmlns="http://www.w3.org/2000/svg">
<path d="M1550 0H0V1024H1550V0Z" fill="#06083D"/>
<path d="M792 0C791.311 113.045 790.622 225.92 731.7 300.373C672.778 374.826 555.623 410.686 476.372 472.161C397.12 533.465 355.943 620.384 282.894 676.736C209.845 733.259 104.922 759.044 0 785V0H792Z" fill="#090B41"/>
<path d="M693 0C692.483 98.7553 691.966 197.511 640.275 262.495C588.757 327.649 486.237 359.033 416.799 412.589C347.534 466.316 311.523 542.216 247.426 591.509C183.502 640.801 91.8371 663.486 0 686V0H693Z" fill="#121049"/>
<path d="M594 0C593.483 84.5847 592.966 169.169 548.692 224.934C504.59 280.698 416.558 307.643 357.296 353.687C297.861 399.56 266.852 464.704 212.069 506.997C157.286 549.118 78.7291 568.559 0 588V0H594Z" fill="#1B1352"/>
<path d="M495 0C494.655 70.6091 494.139 141.048 457.268 187.609C420.569 233.999 347.172 256.342 297.724 294.716C248.275 333.091 222.431 387.327 176.773 422.461C131.116 457.765 65.6439 473.797 0 490V0H495Z" fill="#24165A"/>
<path d="M396 0C395.655 56.4385 395.311 112.877 365.856 150.048C336.402 187.219 277.665 205.122 238.048 235.643C198.431 266.335 177.933 309.815 141.416 337.949C104.9 366.083 52.3636 379.041 0 392V0H396Z" fill="#2D1A62"/>
<path d="M297 0C296.655 42.2923 296.483 84.5847 274.432 112.552C252.209 140.349 208.279 153.821 178.648 176.843C148.845 199.865 133.512 232.267 106.121 253.413C78.7291 274.559 39.2784 284.28 0 294V0H297Z" fill="#371D6B"/>
<path d="M198 0C197.828 28.1462 197.655 56.463 183.008 75.0566C168.188 93.6501 138.893 102.52 119.076 117.873C99.2585 133.225 88.9191 154.889 70.6527 169.048C52.3864 183.036 26.1932 189.518 0 196V0H198Z" fill="#402073"/>
<path d="M99 0C98.8278 14.1461 98.8278 28.1217 91.4243 37.4957C84.0209 46.6991 69.3861 51.3009 59.5722 58.9704C49.5861 66.64 44.4209 77.3774 35.2957 84.3652C26.1704 91.5235 13.0852 94.7617 0 98V0H99Z" fill="#452277"/>
</svg>
