<svg width="736" height="654" viewBox="0 0 736 654" fill="none" xmlns="http://www.w3.org/2000/svg">
<g filter="url(#filter0_f_18_404)">
<path d="M186.371 181.085C128.473 281.366 162.832 409.595 263.113 467.492C363.394 525.389 491.623 491.03 549.52 390.75C607.417 290.469 573.058 162.24 472.777 104.343C372.496 46.4455 244.268 80.8043 186.371 181.085Z" stroke="url(#paint0_linear_18_404)" stroke-width="7"/>
</g>
<g opacity="0.5" filter="url(#filter1_f_18_404)">
<path d="M174.723 201.26C116.825 301.541 151.184 429.77 251.465 487.667C351.746 545.564 479.975 511.205 537.872 410.925C595.769 310.644 561.41 182.415 461.129 124.518C360.849 66.6205 232.62 100.979 174.723 201.26Z" stroke="url(#paint1_linear_18_404)" stroke-width="7"/>
</g>
<g opacity="0.5" filter="url(#filter2_f_18_404)">
<path d="M198.018 160.91C140.121 261.191 174.48 389.42 274.761 447.317C375.042 505.214 503.271 470.856 561.168 370.575C619.065 270.294 584.706 142.065 484.425 84.1678C384.144 26.2706 255.916 60.6293 198.018 160.91Z" stroke="url(#paint2_linear_18_404)" stroke-width="7"/>
</g>
<path d="M186.371 181.085C128.473 281.366 162.832 409.595 263.113 467.492C363.394 525.389 491.623 491.03 549.52 390.75C607.417 290.469 573.058 162.24 472.777 104.343C372.496 46.4455 244.268 80.8043 186.371 181.085Z" stroke="url(#paint3_linear_18_404)" stroke-width="7"/>
<defs>
<filter id="filter0_f_18_404" x="0.745239" y="-81.2826" width="734.4" height="734.4" filterUnits="userSpaceOnUse" color-interpolation-filters="sRGB">
<feFlood flood-opacity="0" result="BackgroundImageFix"/>
<feBlend mode="normal" in="SourceGraphic" in2="BackgroundImageFix" result="shape"/>
<feGaussianBlur stdDeviation="77" result="effect1_foregroundBlur_18_404"/>
</filter>
<filter id="filter1_f_18_404" x="117.097" y="66.8924" width="478.4" height="478.4" filterUnits="userSpaceOnUse" color-interpolation-filters="sRGB">
<feFlood flood-opacity="0" result="BackgroundImageFix"/>
<feBlend mode="normal" in="SourceGraphic" in2="BackgroundImageFix" result="shape"/>
<feGaussianBlur stdDeviation="13" result="effect1_foregroundBlur_18_404"/>
</filter>
<filter id="filter2_f_18_404" x="140.393" y="26.5425" width="478.4" height="478.4" filterUnits="userSpaceOnUse" color-interpolation-filters="sRGB">
<feFlood flood-opacity="0" result="BackgroundImageFix"/>
<feBlend mode="normal" in="SourceGraphic" in2="BackgroundImageFix" result="shape"/>
<feGaussianBlur stdDeviation="13" result="effect1_foregroundBlur_18_404"/>
</filter>
<linearGradient id="paint0_linear_18_404" x1="549.52" y1="390.75" x2="186.371" y2="181.085" gradientUnits="userSpaceOnUse">
<stop stop-color="#1F8CDB"/>
<stop offset="1" stop-color="#F42A8B"/>
</linearGradient>
<linearGradient id="paint1_linear_18_404" x1="537.872" y1="410.925" x2="174.723" y2="201.26" gradientUnits="userSpaceOnUse">
<stop stop-color="#1F8CDB"/>
<stop offset="1" stop-color="#F42A8B"/>
</linearGradient>
<linearGradient id="paint2_linear_18_404" x1="561.168" y1="370.575" x2="198.018" y2="160.91" gradientUnits="userSpaceOnUse">
<stop stop-color="#1F8CDB"/>
<stop offset="1" stop-color="#F42A8B"/>
</linearGradient>
<linearGradient id="paint3_linear_18_404" x1="549.52" y1="390.75" x2="186.371" y2="181.085" gradientUnits="userSpaceOnUse">
<stop stop-color="#1F8CDB"/>
<stop offset="1" stop-color="#F42A8B"/>
</linearGradient>
</defs>
</svg>
