<svg width="58" height="58" viewBox="0 0 58 58" fill="none" xmlns="http://www.w3.org/2000/svg">
<path d="M29 0C12.9842 0 0 12.9842 0 29C0 42.6936 9.49415 54.1631 22.2575 57.2036C21.5972 57.0463 20.9425 56.8701 20.3 56.6693V50.025C20.3 50.025 19.2125 50.3875 17.7625 50.3875C13.7058 50.3875 12.0205 46.7681 11.6 44.95C11.3446 43.8424 10.6776 42.7928 9.9615 42.1515C9.106 41.3886 8.70558 41.3863 8.7 41.1253C8.68885 40.5777 9.43392 40.6 9.7875 40.6C11.6 40.6 12.9742 42.5285 13.6122 43.5257C15.1927 45.9873 16.8892 46.4 17.7625 46.4C18.85 46.4 19.7892 46.2372 20.4361 45.9248C20.735 43.819 21.6719 41.9429 23.2 40.6C16.3995 39.2403 11.6 35.3398 11.6 29C11.6 25.7342 12.9106 22.7327 15.0945 20.3089C14.8714 19.6765 14.5 18.3972 14.5 16.3125C14.5 14.935 14.5959 13.2441 15.225 11.6C15.225 11.6 19.3608 11.629 23.2613 15.3232C25.0616 14.7989 26.9878 14.5 29 14.5C31.0122 14.5 32.9384 14.7989 34.7387 15.3232C38.6392 11.629 42.775 11.6 42.775 11.6C43.4074 13.2441 43.5 14.935 43.5 16.3125C43.5 18.56 43.2011 19.8706 43.0182 20.4361C45.1352 22.8375 46.4 25.7922 46.4 29C46.4 35.3398 41.6005 39.2403 34.8 40.6C36.6158 42.195 37.7 44.5183 37.7 47.125V56.6693C37.0575 56.8712 36.4039 57.0463 35.7425 57.2036C48.5058 54.1631 58 42.6936 58 29C58 12.9842 45.0158 0 29 0ZM31.0222 57.9219C30.3541 57.9688 29.6804 58 29 58C29.6804 58 30.353 57.9677 31.0222 57.9219ZM35.4536 57.2705C34.1553 57.5661 32.8246 57.7736 31.4661 57.8885C32.8246 57.7736 34.1553 57.565 35.4536 57.2705ZM29 58C28.3196 58 27.6459 57.9688 26.9778 57.9219C27.647 57.9677 28.3196 58 29 58ZM26.5328 57.8885C25.1753 57.7736 23.8436 57.5661 22.5464 57.2705C23.8447 57.565 25.1753 57.7736 26.5328 57.8885Z" fill="white"/>
</svg>
