<svg width="54" height="54" viewBox="0 0 54 54" fill="none" xmlns="http://www.w3.org/2000/svg">
<path d="M27 0C12.0893 0 0 12.0893 0 27C0 41.9107 12.0893 54 27 54C41.9107 54 54 41.9107 54 27C54 12.0893 41.9107 0 27 0ZM31.9905 41.886C31.194 42.0412 30.9375 41.5508 30.9375 41.13V36.8077C30.9375 35.3385 30.4223 34.38 29.8553 33.8917C33.3652 33.5025 37.0507 32.1705 37.0507 26.1203C37.0507 24.399 36.4365 22.995 35.4285 21.8925C35.5905 21.4942 36.1305 19.8922 35.2733 17.7232C35.2733 17.7232 33.9525 17.3002 30.9465 19.3365C29.6842 18.99 28.3388 18.8167 27 18.81C25.6612 18.8167 24.3157 18.99 23.0557 19.3388C20.0475 17.3025 18.7245 17.7255 18.7245 17.7255C17.8717 19.8945 18.4095 21.4965 18.5738 21.8925C17.5658 22.995 16.9492 24.399 16.9492 26.1203C16.9492 32.1548 20.6258 33.5047 24.1245 33.903C23.6745 34.2967 23.2672 34.9897 23.1255 36.009C22.2255 36.4117 19.9463 37.107 18.5423 34.6995C18.5423 34.6995 17.7098 33.1875 16.128 33.075C16.128 33.075 14.5912 33.0548 16.02 34.0335C16.02 34.0335 17.055 34.5172 17.7682 36.3375C17.7682 36.3375 18.6795 39.15 23.0625 38.196V41.1277C23.0625 41.544 22.8083 42.0322 22.023 41.886C15.7635 39.8047 11.25 33.9008 11.25 26.9438C11.25 18.243 18.3037 11.1937 27 11.1937C35.6963 11.1937 42.75 18.243 42.75 26.9438C42.75 33.8985 38.2433 39.8025 31.9905 41.886V41.886Z" fill="white"/>
</svg>
