<svg width="54" height="54" viewBox="0 0 54 54" fill="none" xmlns="http://www.w3.org/2000/svg">
<path d="M33.3653 14.1795C31.7048 14.103 31.2052 14.0895 27 14.0895C22.7948 14.0895 22.2975 14.1053 20.637 14.1795C16.3642 14.3753 14.3753 16.398 14.1795 20.637C14.1053 22.2975 14.0873 22.7948 14.0873 27C14.0873 31.2052 14.1053 31.7025 14.1795 33.3653C14.3753 37.593 16.3552 39.627 20.637 39.8227C22.2952 39.897 22.7948 39.915 27 39.915C31.2075 39.915 31.7048 39.8992 33.3653 39.8227C37.638 39.6292 39.6247 37.5998 39.8227 33.3653C39.897 31.7048 39.9128 31.2052 39.9128 27C39.9128 22.7948 39.897 22.2975 39.8227 20.637C39.6247 16.4002 37.6335 14.3753 33.3653 14.1795V14.1795ZM27 35.0888C22.5337 35.0888 18.9112 31.4685 18.9112 27C18.9112 22.5337 22.5337 18.9135 27 18.9135C31.4663 18.9135 35.0888 22.5337 35.0888 27C35.0888 31.4663 31.4663 35.0888 27 35.0888ZM35.4083 20.484C34.3643 20.484 33.5183 19.638 33.5183 18.594C33.5183 17.55 34.3643 16.704 35.4083 16.704C36.4523 16.704 37.2982 17.55 37.2982 18.594C37.2982 19.6357 36.4523 20.484 35.4083 20.484V20.484ZM32.2493 27C32.2493 29.9003 29.898 32.2493 27 32.2493C24.102 32.2493 21.7507 29.9003 21.7507 27C21.7507 24.0997 24.102 21.7507 27 21.7507C29.898 21.7507 32.2493 24.0997 32.2493 27ZM27 0C12.0893 0 0 12.0893 0 27C0 41.9107 12.0893 54 27 54C41.9107 54 54 41.9107 54 27C54 12.0893 41.9107 0 27 0ZM42.6555 33.4935C42.3968 39.2197 39.2085 42.3923 33.4958 42.6555C31.815 42.732 31.2773 42.75 27 42.75C22.7227 42.75 22.1873 42.732 20.5065 42.6555C14.7825 42.3923 11.6077 39.2152 11.3445 33.4935C11.268 31.815 11.25 31.2773 11.25 27C11.25 22.7227 11.268 22.1873 11.3445 20.5065C11.6077 14.7825 14.7848 11.6078 20.5065 11.3468C22.1873 11.268 22.7227 11.25 27 11.25C31.2773 11.25 31.815 11.268 33.4958 11.3468C39.222 11.61 42.399 14.7938 42.6555 20.5065C42.732 22.1873 42.75 22.7227 42.75 27C42.75 31.2773 42.732 31.815 42.6555 33.4935Z" fill="white"/>
</svg>
