<svg width="54" height="54" viewBox="0 0 54 54" fill="none" xmlns="http://www.w3.org/2000/svg">
<path d="M27 0C12.0893 0 0 12.0893 0 27C0 41.9107 12.0893 54 27 54C41.9107 54 54 41.9107 54 27C54 12.0893 41.9107 0 27 0ZM22.5 36H18V22.5H22.5V36ZM20.25 20.4953C18.8843 20.4953 17.775 19.3792 17.775 18C17.775 16.623 18.882 15.5047 20.25 15.5047C21.618 15.5047 22.725 16.623 22.725 18C22.725 19.3792 21.6157 20.4953 20.25 20.4953ZM38.25 36H33.7545V29.5627C33.7545 25.3305 29.25 25.6882 29.25 29.5627V36H24.75V22.5H29.25V24.9593C31.212 21.3233 38.25 21.0532 38.25 28.4422V36Z" fill="white"/>
</svg>
