<svg width="60" height="60" viewBox="0 0 60 60" fill="none" xmlns="http://www.w3.org/2000/svg">
<path d="M30 0.75C13.8711 0.75 0.75 13.8713 0.75 30C0.75 46.129 13.8711 59.25 30 59.25C46.1288 59.25 59.25 46.129 59.25 30C59.25 13.8713 46.1289 0.75 30 0.75ZM42.7641 17.104C45.7687 16.3097 48.5315 15.2467 50.9115 13.9123C54.101 18.033 56.0993 23.1012 56.3912 28.6678H44.1535C44.0631 24.4898 43.5753 20.5923 42.7641 17.104ZM42.0414 14.3437C40.8213 10.2856 39.1275 6.91128 37.0959 4.5394C41.699 5.824 45.7996 8.32589 49.0274 11.6762C46.972 12.7688 44.6079 13.6649 42.0414 14.3437ZM41.3322 28.6679H18.6678C18.7621 24.8036 19.2449 20.9963 20.0259 17.6752C23.2445 18.3359 26.6817 18.65 30.188 18.65C33.5612 18.65 36.8732 18.3586 39.9903 17.7441C40.7621 21.0471 41.2385 24.8056 41.3322 28.6679ZM18.6677 31.4878H41.3322C41.2384 35.3475 40.7591 39.0579 39.9828 42.3663C36.8215 41.7274 33.4507 41.35 30.0078 41.35C26.564 41.35 23.186 41.728 20.0179 42.3697C19.2413 39.0603 18.7615 35.3476 18.6677 31.4878ZM30 3.57C31.854 3.57 33.6564 4.69439 35.273 6.74062C36.8468 8.73272 38.2184 11.5684 39.2586 14.9782C36.3812 15.5334 33.3176 15.83 30.188 15.83C26.9257 15.83 23.739 15.511 20.7619 14.9116C21.8033 11.5203 23.1729 8.70107 24.7429 6.72094C26.3555 4.68715 28.1521 3.57 30 3.57ZM17.9866 14.2514C15.4513 13.556 13.1216 12.6464 11.1 11.5424C14.3076 8.25879 18.3616 5.80673 22.9041 4.53944C20.888 6.89329 19.2047 10.2346 17.9866 14.2514ZM15.8465 28.6679H3.60896C3.90511 23.0966 5.9495 17.8932 9.2054 13.7454C11.5513 15.0962 14.2799 16.2124 17.2577 17.0291C16.4334 20.5415 15.9379 24.4868 15.8465 28.6679ZM17.2471 43.0237C14.2555 43.8309 11.5101 44.9388 9.14953 46.2816C5.92532 42.1474 3.90307 37.055 3.60889 31.4878H15.8465C15.9373 35.6654 16.4293 39.5257 17.2471 43.0237ZM17.9733 45.7052C19.1924 49.7414 20.8806 53.0983 22.9041 55.4606C18.3329 54.1852 14.2566 51.7094 11.0394 48.3941C13.077 47.2961 15.4229 46.3927 17.9733 45.7052ZM30 56.43C28.1493 56.43 26.3498 55.3095 24.7353 53.2698C23.1635 51.284 21.7928 48.457 20.752 45.0569C23.6828 44.4783 26.8112 44.17 30.0079 44.17C33.2033 44.17 36.3251 44.4776 39.249 45.0534C38.2083 48.4545 36.8375 51.2823 35.2655 53.2687C33.6508 55.3091 31.8511 56.43 30 56.43ZM42.0282 45.6997C44.5798 46.3865 46.9261 47.2899 48.9657 48.3889C45.7476 51.7067 41.6696 54.1844 37.0959 55.4607C39.1204 53.0973 40.8093 49.7385 42.0282 45.6997ZM56.3912 31.4879C56.0973 37.0541 54.0776 42.1221 50.8565 46.2545C48.4914 44.9122 45.7444 43.8411 42.7539 43.0373C43.5712 39.5399 44.0628 35.6659 44.1535 31.4879H56.3912Z" fill="white" stroke="white" stroke-width="0.5"/>
</svg>
