<svg width="54" height="54" viewBox="0 0 54 54" fill="none" xmlns="http://www.w3.org/2000/svg">
<path d="M27.0698 13.887C19.9125 13.887 14.094 19.7055 14.0918 26.8605C14.0895 29.781 14.9468 31.968 16.3845 34.2563L15.075 39.0443L19.9845 37.755C22.185 39.06 24.2843 39.843 27.0608 39.8452C34.2113 39.8452 40.0365 34.0245 40.0388 26.8717C40.041 19.701 34.245 13.8892 27.0698 13.887V13.887ZM34.7018 32.436C34.3778 33.3473 32.8185 34.1775 32.0693 34.29C31.3965 34.3912 30.546 34.4317 29.6123 34.1347C29.0453 33.9547 28.3185 33.714 27.3893 33.3135C23.4765 31.6237 20.9227 27.684 20.727 27.4253C20.5312 27.1643 19.134 25.3102 19.134 23.391C19.134 21.4717 20.142 20.5267 20.4998 20.1375C20.8575 19.7482 21.2782 19.6492 21.5392 19.6492L22.2862 19.6628C22.5247 19.674 22.8465 19.5727 23.1638 20.3332C23.4878 21.114 24.2685 23.0333 24.3653 23.229C24.462 23.4248 24.5273 23.652 24.3968 23.913C24.2663 24.174 24.201 24.336 24.0075 24.5632L23.4225 25.2472C23.2267 25.4407 23.0242 25.6522 23.2515 26.0437C23.4787 26.4352 24.2618 27.711 25.4205 28.746C26.91 30.0758 28.1678 30.4875 28.557 30.681C28.9463 30.8745 29.1735 30.843 29.403 30.5843C29.6302 30.3233 30.3772 29.4458 30.6382 29.0543C30.8992 28.665 31.158 28.728 31.5157 28.8585C31.8735 28.989 33.7905 29.9318 34.1797 30.1275C34.569 30.3233 34.83 30.42 34.9267 30.582C35.028 30.744 35.028 31.5248 34.7018 32.436V32.436ZM27 0C12.0893 0 0 12.0893 0 27C0 41.9107 12.0893 54 27 54C41.9107 54 54 41.9107 54 27C54 12.0893 41.9107 0 27 0ZM27.0653 42.48C24.453 42.48 21.879 41.823 19.5998 40.581L11.3265 42.75L13.5405 34.6612C12.1748 32.2942 11.4548 29.6078 11.457 26.8583C11.4593 18.252 18.4613 11.25 27.0653 11.25C31.2413 11.2523 35.1608 12.8767 38.106 15.8265C41.0535 18.7762 42.6757 22.698 42.6735 26.8695C42.6712 35.4758 35.6693 42.48 27.0653 42.48V42.48Z" fill="white"/>
</svg>
